<?xml version="1.0" encoding="UTF-8" standalone="no"?>
<!DOCTYPE svg PUBLIC "-//W3C//DTD SVG 1.1//EN" "http://www.w3.org/Graphics/SVG/1.1/DTD/svg11.dtd">
<svg xmlns="http://www.w3.org/2000/svg" version="1.1" viewBox="0.00 0.00 954.00 883.00">
<path fill="#00f5c9" d="
  M 506.78 71.84
  L 545.50 75.81
  A 0.44 0.44 0.0 0 1 545.90 76.29
  L 544.38 91.58
  A 0.44 0.44 0.0 0 1 543.90 91.97
  L 505.13 87.98
  A 0.44 0.44 0.0 0 0 504.65 88.37
  L 502.47 109.63
  A 0.44 0.44 0.0 0 0 502.87 110.11
  L 544.98 114.37
  A 0.44 0.44 0.0 0 1 545.38 114.85
  L 543.83 130.16
  A 0.44 0.44 0.0 0 1 543.35 130.55
  L 481.63 124.21
  A 0.44 0.44 0.0 0 1 481.23 123.73
  L 490.64 32.02
  A 0.44 0.44 0.0 0 1 491.12 31.62
  L 552.65 37.92
  A 0.44 0.44 0.0 0 1 553.05 38.40
  L 551.47 53.68
  A 0.44 0.44 0.0 0 1 550.99 54.08
  L 509.05 49.78
  A 0.44 0.44 0.0 0 0 508.56 50.18
  L 506.39 71.36
  A 0.44 0.44 0.0 0 0 506.78 71.84
  Z"
/>
<path fill="#00f5c9" d="
  M 412.72 101.04
  L 416.60 129.97
  A 0.43 0.43 0.0 0 1 416.22 130.46
  L 397.50 132.98
  A 0.34 0.34 0.0 0 1 397.11 132.68
  L 384.95 41.27
  A 0.51 0.51 0.0 0 1 385.39 40.69
  Q 400.66 38.60 415.98 36.66
  Q 428.17 35.12 433.69 36.00
  C 460.85 40.34 468.77 79.37 444.24 93.50
  C 435.31 98.64 423.25 99.09 413.14 100.49
  A 0.50 0.49 -7.7 0 0 412.72 101.04
  Z
  M 406.61 54.78
  L 410.48 84.19
  A 0.71 0.71 0.0 0 0 411.28 84.80
  L 425.17 82.97
  A 15.42 14.55 -7.5 0 0 438.56 66.53
  L 438.30 64.57
  A 15.42 14.55 -7.5 0 0 421.11 52.16
  L 407.22 53.99
  A 0.71 0.71 0.0 0 0 406.61 54.78
  Z"
/>
<path fill="#00f5c9" d="
  M 599.70 85.63
  L 579.67 140.03
  A 0.39 0.39 0.0 0 1 579.17 140.26
  L 561.44 133.71
  A 0.39 0.39 0.0 0 1 561.20 133.21
  L 593.11 46.61
  A 0.39 0.39 0.0 0 1 593.61 46.37
  L 609.26 52.14
  A 0.39 0.39 0.0 0 1 609.50 52.41
  L 626.97 121.23
  A 0.39 0.39 0.0 0 0 627.71 121.27
  L 647.79 66.75
  A 0.39 0.39 0.0 0 1 648.29 66.51
  L 665.93 73.00
  A 0.39 0.39 0.0 0 1 666.17 73.50
  L 634.28 160.11
  A 0.39 0.39 0.0 0 1 633.78 160.35
  L 618.38 154.68
  A 0.39 0.39 0.0 0 1 618.14 154.41
  L 600.44 85.67
  A 0.39 0.39 0.0 0 0 599.70 85.63
  Z"
/>
<path fill="#00f5c9" d="
  M 288.67 76.42
  C 302.95 61.40 326.53 57.62 343.95 69.05
  Q 352.49 74.66 358.44 84.80
  C 369.55 103.74 372.31 127.69 355.51 144.37
  C 335.08 164.65 302.99 161.81 287.44 136.82
  C 275.75 118.04 272.12 93.86 288.67 76.42
  Z
  M 336.20 87.83
  C 321.03 71.09 293.98 83.83 297.15 106.33
  C 298.67 117.12 304.21 130.00 313.40 136.36
  C 324.87 144.29 341.77 138.35 346.40 125.87
  C 350.79 114.08 344.63 97.13 336.20 87.83
  Z"
/>
<path fill="#00f5c9" d="
  M 774.06 181.58
  L 760.80 170.28
  Q 760.37 169.92 760.62 169.42
  Q 765.09 160.68 758.19 153.30
  C 752.62 147.34 742.64 141.22 736.56 150.07
  C 731.30 157.72 747.08 175.10 749.92 179.57
  C 758.64 193.29 757.72 209.29 743.63 218.48
  C 728.04 228.65 708.69 216.94 698.12 204.95
  C 687.06 192.41 683.95 177.83 695.13 163.76
  Q 695.46 163.35 695.85 163.69
  L 709.32 175.20
  Q 709.74 175.55 709.46 176.02
  Q 705.03 183.62 708.36 190.36
  C 711.93 197.60 723.49 207.10 732.13 202.11
  C 740.47 197.30 735.29 188.37 731.28 182.69
  C 722.95 170.93 711.31 157.09 717.30 143.15
  C 722.83 130.30 736.46 125.02 749.85 129.29
  C 770.97 136.03 790.95 159.75 774.99 181.47
  Q 774.58 182.03 774.06 181.58
  Z"
/>
<path fill="#00f5c9" d="
  M 258.47 198.79
  L 246.74 210.14
  A 0.50 0.50 0.0 0 1 246.29 210.27
  L 177.05 196.70
  A 0.50 0.50 0.0 0 0 176.60 197.54
  L 216.77 238.71
  A 0.50 0.50 0.0 0 1 216.76 239.42
  L 203.40 252.43
  A 0.50 0.50 0.0 0 1 202.69 252.42
  L 138.42 186.49
  A 0.50 0.50 0.0 0 1 138.43 185.78
  L 150.38 174.28
  A 0.50 0.50 0.0 0 1 150.83 174.15
  L 219.99 187.95
  A 0.50 0.50 0.0 0 0 220.44 187.11
  L 180.20 145.90
  A 0.50 0.50 0.0 0 1 180.20 145.19
  L 193.45 132.15
  A 0.50 0.50 0.0 0 1 194.16 132.16
  L 258.48 198.08
  A 0.50 0.50 0.0 0 1 258.47 198.79
  Z"
/>
<path fill="#00f5c9" d="
  M 494.22 248.36
  C 499.13 250.74 498.78 258.40 496.54 262.26
  C 492.29 269.59 481.79 268.28 479.26 260.17
  C 477.84 255.62 478.47 250.52 483.01 247.89
  Q 483.49 247.61 483.47 247.06
  Q 482.55 215.97 483.07 196.01
  Q 483.37 184.79 483.05 178.77
  A 0.87 0.87 0.0 0 0 482.51 178.01
  C 472.46 173.82 472.43 156.15 481.36 150.82
  C 497.46 141.19 512.15 167.28 494.59 177.98
  A 0.97 0.96 74.7 0 0 494.12 178.81
  L 493.77 247.65
  Q 493.77 248.15 494.22 248.36
  Z"
/>
<path fill="#00f5c9" d="
  M 457.42 292.92
  C 469.32 287.35 471.57 309.19 457.46 310.74
  C 452.03 311.34 447.78 307.77 445.93 302.99
  Q 444.92 300.40 445.19 295.39
  C 445.47 290.25 445.80 284.96 445.77 279.78
  Q 445.50 222.46 446.20 165.15
  C 446.30 157.34 456.49 157.00 456.44 165.25
  Q 456.07 228.16 456.30 292.21
  Q 456.31 293.44 457.42 292.92
  Z"
/>
<path fill="#00f5c9" d="
  M 529.80 280.44
  C 539.63 285.03 542.23 300.82 531.07 305.69
  C 523.29 309.09 514.14 304.66 513.06 295.78
  Q 511.86 285.98 519.35 280.33
  Q 519.69 280.08 519.69 279.65
  L 519.90 228.66
  Q 519.91 228.13 519.38 228.02
  Q 515.29 227.14 513.21 224.07
  C 507.41 215.53 510.12 203.03 519.55 198.38
  Q 520.00 198.16 520.00 197.66
  Q 520.00 182.51 520.01 167.38
  C 520.01 159.51 529.22 158.54 529.42 166.06
  Q 529.79 180.03 529.26 199.08
  Q 529.25 199.58 529.70 199.82
  C 540.23 205.33 543.37 222.12 530.32 226.73
  Q 529.81 226.91 529.81 227.45
  L 529.35 279.72
  Q 529.34 280.23 529.80 280.44
  Z"
/>
<path fill="#00f5c9" d="
  M 427.53 251.14
  Q 427.37 211.24 427.59 171.25
  Q 427.61 167.10 428.51 164.27
  C 430.28 158.71 436.27 162.00 436.27 167.25
  Q 436.26 207.63 435.53 248.00
  Q 435.47 251.40 433.24 253.83
  Q 432.87 254.22 433.16 254.67
  C 438.10 262.47 438.18 275.25 426.43 276.68
  C 407.49 278.99 405.87 248.53 426.84 251.74
  A 0.61 0.60 -85.9 0 0 427.53 251.14
  Z"
/>
<rect fill="#00f5c9" x="-4.23" y="-37.70" transform="translate(545.44,206.82) rotate(0.2)" width="8.46" height="75.40" rx="4.17"/>
<path fill="#00f5c9" d="
  M 396.45 181.01
  C 396.09 173.96 403.85 171.24 409.56 172.72
  C 415.75 174.32 417.04 178.16 417.02 184.40
  Q 416.97 206.08 416.74 227.75
  C 416.68 233.14 412.34 236.67 407.72 232.55
  A 1.51 1.49 -75.2 0 1 407.25 231.73
  C 405.85 224.47 406.48 216.22 406.20 208.76
  A 0.95 0.93 -75.8 0 0 405.75 207.99
  C 395.13 201.45 396.99 191.58 396.45 181.01
  Z"
/>
<path fill="#00f5c9" d="
  M 569.96 255.99
  C 558.86 252.91 560.49 238.14 569.30 233.41
  Q 569.73 233.18 569.73 232.69
  Q 569.77 211.84 569.82 191.00
  Q 569.84 183.31 570.50 178.26
  C 571.01 174.35 576.08 174.30 577.83 176.99
  Q 578.64 178.24 578.67 181.03
  Q 578.93 205.92 578.93 230.80
  C 578.93 232.35 578.12 233.82 579.66 235.34
  C 588.12 243.75 584.22 259.95 569.96 255.99
  Z"
/>
<ellipse fill="#00f5c9" cx="0.00" cy="0.00" transform="translate(378.72,190.81) rotate(128.6)" rx="13.54" ry="12.73"/>
<path fill="#00f5c9" d="
  M 602.18 218.00
  Q 588.38 213.06 590.00 199.58
  C 591.31 188.74 598.52 183.54 609.19 188.42
  C 616.00 191.53 618.49 199.71 617.60 206.77
  A 1.22 1.19 76.2 0 1 617.12 207.58
  Q 615.58 208.70 615.57 209.75
  Q 615.30 233.55 615.22 257.35
  C 615.21 258.61 615.09 259.12 614.52 260.21
  A 0.68 0.68 0.0 0 0 614.71 261.06
  Q 616.97 262.84 617.79 266.44
  C 622.87 288.61 593.40 294.38 591.80 273.31
  Q 590.94 261.99 601.40 255.24
  A 1.56 1.54 73.9 0 0 602.10 253.96
  L 602.58 218.57
  Q 602.59 218.14 602.18 218.00
  Z"
/>
<path fill="#00f5c9" d="
  M 388.82 232.07
  L 342.93 231.35
  Q 342.43 231.34 342.05 231.67
  Q 329.20 242.72 318.34 255.58
  C 315.76 258.63 316.01 260.93 310.95 260.95
  Q 284.98 261.07 260.76 260.98
  Q 257.70 260.96 259.84 258.78
  L 275.29 242.99
  Q 275.65 242.62 276.17 242.66
  Q 292.15 243.96 308.18 243.40
  Q 308.64 243.38 309.01 243.65
  Q 309.58 244.08 309.92 244.81
  Q 311.12 247.40 313.19 245.43
  L 342.30 217.69
  Q 342.55 217.46 342.55 217.11
  L 342.80 194.50
  Q 342.81 193.94 343.32 193.72
  L 351.28 190.26
  A 0.55 0.55 0.0 0 1 352.05 190.78
  L 351.68 217.46
  A 0.78 0.78 0.0 0 0 352.46 218.25
  L 392.69 218.25
  Q 393.25 218.25 393.59 217.82
  L 394.55 216.62
  Q 394.91 216.16 395.24 216.64
  Q 397.02 219.21 397.02 222.25
  Q 397.02 264.34 397.57 306.43
  A 0.66 0.66 0.0 0 0 398.14 307.08
  C 407.19 308.31 410.12 318.80 405.61 325.33
  C 396.82 338.05 378.82 329.43 382.45 314.20
  C 383.45 310.01 385.59 308.89 389.16 307.32
  A 1.01 1.01 0.0 0 0 389.76 306.38
  L 389.55 232.81
  Q 389.55 232.08 388.82 232.07
  Z"
/>
<path fill="#00f5c9" d="
  M 300.70 223.09
  L 332.88 198.97
  A 0.54 0.54 0.0 0 1 333.74 199.43
  L 333.21 208.28
  Q 333.17 208.85 332.71 209.18
  C 323.68 215.61 317.40 222.93 306.52 233.93
  Q 306.16 234.31 305.63 234.30
  L 282.98 234.13
  A 0.30 0.30 0.0 0 1 282.85 233.56
  L 299.82 225.31
  Q 300.25 225.11 300.25 224.63
  L 300.25 223.99
  Q 300.25 223.43 300.70 223.09
  Z"
/>
<path fill="#00f5c9" d="
  M 674.56 294.94
  A 0.96 0.96 0.0 0 0 675.51 293.97
  Q 675.19 267.43 676.72 241.01
  Q 676.85 238.71 677.84 236.80
  A 0.65 0.65 0.0 0 1 678.98 236.79
  Q 681.20 240.86 685.40 242.96
  A 1.18 1.16 7.3 0 1 686.02 243.75
  Q 686.31 245.04 686.28 247.00
  Q 685.97 265.14 685.70 283.27
  C 685.65 287.00 685.30 292.01 685.74 296.50
  Q 685.89 298.02 685.64 299.53
  Q 685.55 300.07 685.04 300.27
  Q 681.34 301.72 678.61 304.60
  Q 678.25 304.98 677.73 304.98
  L 651.20 305.01
  Q 650.71 305.01 650.49 305.45
  C 643.96 318.87 625.53 313.48 625.18 298.99
  Q 624.99 291.69 631.20 286.19
  Q 631.52 285.91 631.52 285.49
  L 631.49 204.27
  A 0.43 0.43 0.0 0 1 632.12 203.89
  L 645.40 211.01
  Q 646.36 211.53 646.35 212.61
  L 645.84 288.06
  A 0.74 0.74 0.0 0 0 646.38 288.77
  Q 650.45 289.92 650.97 294.12
  A 1.17 1.17 0.0 0 0 652.14 295.14
  L 674.56 294.94
  Z"
/>
<path fill="#00f5c9" d="
  M 772.44 287.06
  C 755.55 271.81 752.76 247.75 765.82 229.79
  Q 773.91 218.66 788.39 211.39
  C 806.87 202.09 827.28 204.86 840.73 220.44
  C 862.74 245.92 851.63 276.47 824.34 291.35
  C 806.71 300.96 788.07 301.19 772.44 287.06
  Z
  M 775.71 255.01
  C 774.98 268.39 786.76 280.78 800.83 278.88
  C 813.56 277.15 829.68 265.81 833.44 253.17
  C 837.09 240.92 827.48 227.09 815.24 225.42
  C 800.59 223.42 776.57 239.07 775.71 255.01
  Z"
/>
<path fill="#00f5c9" d="
  M 158.10 250.34
  L 137.73 283.69
  A 0.37 0.37 0.0 0 0 137.85 284.20
  L 156.18 295.44
  A 0.37 0.37 0.0 0 0 156.69 295.31
  L 178.85 259.00
  A 0.37 0.37 0.0 0 1 179.36 258.87
  L 192.57 266.97
  A 0.37 0.37 0.0 0 1 192.69 267.48
  L 160.32 320.53
  A 0.37 0.37 0.0 0 1 159.81 320.66
  L 80.98 272.56
  A 0.37 0.37 0.0 0 1 80.85 272.05
  L 113.14 219.12
  A 0.37 0.37 0.0 0 1 113.65 218.99
  L 126.85 227.12
  A 0.37 0.37 0.0 0 1 126.97 227.62
  L 104.93 263.70
  A 0.37 0.37 0.0 0 0 105.06 264.21
  L 123.38 275.41
  A 0.37 0.37 0.0 0 0 123.89 275.28
  L 144.23 241.90
  A 0.37 0.37 0.0 0 1 144.74 241.77
  L 157.97 249.83
  A 0.37 0.37 0.0 0 1 158.10 250.34
  Z"
/>
<path fill="#00f5c9" d="
  M 658.64 221.74
  A 0.73 0.73 0.0 0 1 660.05 221.52
  Q 661.33 224.85 664.89 225.49
  A 1.33 1.32 5.0 0 1 665.98 226.78
  Q 666.04 233.13 665.98 239.38
  C 665.95 242.56 667.59 255.42 661.52 254.22
  C 659.23 253.77 658.51 251.17 658.42 248.90
  Q 657.87 235.29 658.64 221.74
  Z"
/>
<ellipse fill="#00f5c9" cx="0.00" cy="0.00" transform="translate(340.88,255.88) rotate(100.8)" rx="5.81" ry="5.07"/>
<path fill="#00f5c9" d="
  M 360.91 270.10
  Q 354.85 265.78 355.57 259.19
  C 357.16 244.61 376.59 248.83 376.49 262.88
  C 376.47 266.31 373.90 268.48 373.87 271.56
  Q 373.59 303.49 373.17 317.49
  Q 373.08 320.50 371.13 323.52
  Q 370.87 323.93 370.38 323.96
  C 363.99 324.42 363.57 320.48 363.51 315.44
  Q 363.26 296.15 363.22 276.86
  C 363.21 273.88 363.58 272.00 360.91 270.10
  Z"
/>
<path fill="#00f5c9" d="
  M 698.40 364.15
  A 0.83 0.83 0.0 0 0 697.11 364.02
  C 691.52 369.68 682.69 371.13 676.54 365.09
  C 668.78 357.47 670.80 343.90 680.98 339.18
  Q 681.42 338.97 681.46 338.49
  Q 682.41 327.07 681.75 315.64
  A 0.80 0.78 -25.2 0 1 681.97 315.05
  L 697.07 299.65
  A 0.72 0.70 -23.2 0 0 697.28 299.15
  Q 697.70 278.64 697.50 258.27
  Q 697.48 256.46 698.40 255.21
  A 0.52 0.51 48.8 0 1 699.27 255.27
  Q 702.13 260.51 706.80 264.27
  Q 707.25 264.63 707.25 265.21
  L 707.25 302.17
  Q 707.25 302.68 706.90 303.05
  L 693.58 317.17
  Q 693.23 317.53 693.23 318.03
  L 692.96 341.84
  Q 692.95 342.28 693.33 342.50
  Q 697.22 344.79 698.30 349.20
  Q 698.43 349.75 698.99 349.75
  L 723.60 349.75
  Q 724.06 349.75 724.39 349.44
  L 740.36 334.34
  Q 740.70 334.02 740.71 333.55
  L 741.22 309.52
  Q 741.29 306.18 742.67 309.22
  C 745.51 315.48 749.36 321.85 751.73 328.44
  Q 753.24 332.64 754.73 336.84
  Q 754.92 337.35 754.45 337.62
  C 753.30 338.31 751.95 338.83 751.01 339.70
  Q 736.89 352.74 723.07 364.82
  A 4.64 4.61 -66.2 0 1 720.17 365.96
  Q 710.41 366.20 700.67 365.58
  C 699.74 365.52 698.86 364.88 698.40 364.15
  Z"
/>
<path fill="#00f5c9" d="
  M 324.49 382.19
  Q 311.77 369.60 299.83 356.55
  A 0.94 0.94 0.0 0 0 298.21 357.00
  C 296.63 364.79 297.59 374.72 298.05 382.68
  Q 298.08 383.19 298.54 383.42
  C 307.60 387.80 312.09 401.84 301.44 407.51
  C 293.08 411.96 287.51 407.99 281.98 401.85
  A 1.28 1.28 0.0 0 0 281.01 401.43
  L 265.47 401.80
  A 1.05 1.05 0.0 0 1 264.54 401.30
  C 260.96 395.53 255.47 391.53 255.38 384.00
  Q 254.89 343.81 255.03 303.62
  C 255.06 296.79 251.74 291.97 245.41 289.64
  C 242.47 288.56 238.80 289.26 235.37 288.71
  A 0.44 0.43 20.5 0 1 235.07 288.06
  Q 241.07 277.98 249.09 269.43
  Q 249.40 269.09 249.71 269.43
  L 260.02 280.85
  Q 260.41 281.28 260.99 281.31
  L 281.52 282.32
  Q 282.25 282.36 282.22 283.08
  L 282.09 286.96
  Q 282.06 287.72 281.30 287.74
  L 264.62 288.11
  A 0.98 0.97 -0.6 0 0 263.66 289.08
  C 263.52 320.16 263.76 351.25 263.54 382.34
  C 263.50 387.17 264.93 389.99 268.11 393.19
  Q 268.49 393.57 269.02 393.53
  L 279.82 392.70
  A 1.73 1.72 -83.8 0 0 281.34 391.47
  Q 283.12 385.49 288.77 383.08
  A 0.91 0.91 0.0 0 0 289.32 382.23
  L 288.96 358.78
  A 0.89 0.89 0.0 0 0 288.43 357.98
  Q 277.50 353.05 278.95 341.97
  C 279.66 336.55 282.62 332.24 287.66 330.24
  A 2.12 2.12 0.0 0 0 289.00 328.27
  L 289.00 303.26
  A 1.43 1.40 26.4 0 0 288.69 302.38
  C 281.46 293.35 286.48 280.31 297.42 277.90
  C 308.79 275.40 318.47 288.99 313.95 299.18
  Q 309.97 308.16 298.66 307.15
  Q 298.12 307.10 298.10 307.64
  C 297.75 314.74 296.75 322.61 297.62 329.58
  A 0.79 0.79 0.0 0 0 298.25 330.26
  Q 304.03 331.39 306.38 336.68
  A 0.84 0.82 -10.9 0 0 307.13 337.18
  Q 316.92 337.50 326.55 336.84
  Q 327.51 336.77 328.36 336.44
  Q 328.85 336.25 329.06 335.77
  C 334.50 323.40 349.58 325.31 354.61 336.77
  C 361.45 352.36 339.86 363.07 329.99 349.08
  A 0.56 0.56 0.0 0 0 329.55 348.84
  L 308.93 348.54
  A 0.89 0.89 0.0 0 0 308.30 350.07
  Q 328.28 369.39 347.73 388.03
  Q 348.83 389.08 349.82 390.22
  A 0.95 0.95 0.0 0 0 350.65 390.54
  C 352.92 390.30 355.30 389.88 357.43 390.77
  Q 365.83 394.31 366.94 402.87
  C 369.07 419.26 344.25 420.93 343.70 403.50
  Q 343.69 403.04 343.38 402.70
  C 337.91 396.67 331.34 388.96 324.49 382.19
  Z"
/>
<path fill="#00f5c9" d="
  M 719.67 277.62
  C 720.95 282.10 724.20 284.04 727.17 287.34
  Q 727.48 287.69 727.48 288.17
  Q 727.47 306.07 727.82 324.00
  C 727.87 326.73 725.45 332.44 721.44 329.99
  Q 717.27 327.44 717.33 321.99
  Q 717.55 301.75 717.88 281.50
  Q 717.91 279.76 718.45 277.63
  A 0.63 0.63 0.0 0 1 719.67 277.62
  Z"
/>
<path fill="#00f5c9" d="
  M 232.24 365.72
  L 232.58 323.71
  A 1.31 1.28 -68.8 0 0 232.16 322.73
  L 227.09 318.04
  A 0.93 0.92 52.8 0 0 226.03 317.89
  C 223.48 319.21 222.01 321.15 221.84 324.20
  C 221.12 337.45 221.90 350.84 220.36 363.99
  Q 220.29 364.58 219.74 364.78
  L 218.73 365.14
  Q 218.22 365.32 218.18 365.87
  Q 217.24 379.62 219.29 393.20
  A 0.92 0.91 -7.6 0 1 218.49 394.24
  C 214.06 394.76 210.55 390.70 208.74 387.47
  Q 207.82 385.82 206.91 387.48
  L 202.87 394.84
  A 0.78 0.77 17.4 0 1 202.08 395.25
  Q 195.30 394.41 188.78 396.07
  A 2.21 2.21 0.0 0 1 186.03 393.91
  C 186.04 392.87 185.87 391.42 186.16 390.35
  C 194.81 358.16 207.74 327.29 226.87 300.57
  Q 227.13 300.21 227.57 300.25
  C 238.49 301.32 245.64 301.41 245.47 313.71
  Q 245.17 336.14 244.65 358.56
  Q 244.51 364.36 243.51 368.29
  Q 243.39 368.76 243.69 369.15
  Q 248.13 374.93 246.21 382.25
  C 245.00 386.83 242.47 388.02 238.19 389.34
  Q 237.64 389.51 237.87 390.04
  Q 240.03 395.06 242.01 396.99
  Q 256.42 411.02 271.01 424.86
  A 0.88 0.87 -32.5 0 0 271.89 425.05
  C 294.73 417.34 299.12 455.70 276.51 453.46
  Q 270.18 452.83 265.30 448.52
  A 1.38 1.36 -22.1 0 0 264.48 448.18
  L 222.54 445.55
  Q 220.50 445.43 220.50 447.47
  L 220.50 456.97
  Q 220.50 457.61 221.14 457.53
  Q 248.41 454.37 275.74 455.54
  Q 282.92 455.85 290.61 457.46
  Q 309.15 461.32 327.53 465.85
  Q 328.00 465.97 327.92 466.45
  C 326.53 474.55 326.77 492.14 337.49 493.97
  Q 340.13 494.42 342.76 494.49
  Q 364.98 495.10 387.19 495.88
  Q 387.68 495.90 387.60 496.38
  L 386.69 502.16
  A 0.74 0.73 4.2 0 0 387.43 503.01
  Q 404.24 502.86 420.99 504.09
  Q 425.92 504.45 430.87 504.50
  A 1.24 1.22 -66.2 0 0 431.75 504.15
  C 439.08 497.04 449.25 493.71 458.81 490.71
  C 467.64 487.95 474.75 489.77 479.78 480.31
  A 0.45 0.45 0.0 0 0 479.24 479.68
  C 469.92 482.88 459.64 485.10 450.95 487.58
  Q 444.11 489.53 437.18 491.20
  Q 436.69 491.31 436.36 490.93
  Q 422.24 474.41 407.12 458.90
  Q 406.13 457.89 404.94 457.16
  Q 404.51 456.90 404.05 457.13
  C 381.36 468.90 367.80 476.04 347.96 484.12
  C 344.88 485.37 341.91 485.96 338.72 486.48
  Q 337.27 486.71 337.18 485.24
  L 336.29 470.56
  A 0.48 0.48 0.0 0 1 336.94 470.09
  L 339.08 470.92
  Q 339.58 471.11 340.07 470.89
  C 354.75 464.16 369.13 459.10 384.99 453.02
  C 406.51 444.77 426.89 438.39 450.26 440.20
  Q 450.73 440.24 451.16 440.03
  Q 468.61 431.73 485.52 422.34
  A 0.81 0.81 0.0 0 1 486.13 422.27
  L 559.40 442.99
  Q 560.41 443.27 560.35 442.23
  Q 559.42 424.08 560.03 405.93
  Q 560.05 405.21 560.76 405.13
  L 562.35 404.95
  Q 562.79 404.91 563.01 404.52
  L 578.77 376.48
  Q 579.23 375.66 579.63 376.51
  L 592.63 404.24
  Q 592.87 404.75 593.43 404.75
  L 597.22 404.75
  A 1.28 1.28 0.0 0 1 598.50 406.03
  L 598.50 450.23
  Q 598.50 450.68 598.93 450.84
  Q 613.91 456.48 628.62 462.63
  C 630.36 463.35 632.23 463.65 634.11 464.07
  A 0.80 0.80 0.0 0 1 634.74 464.85
  L 634.76 469.81
  A 0.72 0.72 0.0 0 0 635.35 470.52
  L 643.31 471.96
  A 0.56 0.55 -82.8 0 0 643.97 471.44
  L 644.07 469.79
  Q 644.11 469.12 644.78 469.20
  Q 646.39 469.39 650.75 469.46
  C 678.49 469.92 706.35 470.08 734.02 472.21
  Q 741.52 472.79 746.52 467.24
  Q 756.02 456.68 760.70 450.42
  C 761.89 448.81 761.50 446.32 761.48 444.40
  Q 761.43 437.36 761.64 430.37
  A 0.35 0.35 0.0 0 0 761.06 430.10
  C 754.35 435.97 747.86 442.08 739.55 445.76
  Q 739.10 445.96 739.15 446.45
  Q 740.02 456.17 731.28 459.26
  C 714.69 465.12 707.90 439.46 724.75 436.24
  Q 730.46 435.14 735.05 439.71
  A 1.34 1.34 0.0 0 0 736.89 439.77
  Q 747.85 430.06 757.21 418.82
  C 761.24 413.98 763.67 407.39 767.97 403.36
  Q 770.79 400.73 774.47 398.70
  A 0.88 0.87 70.0 0 1 775.75 399.30
  C 781.95 431.76 783.16 463.35 780.58 498.04
  C 776.70 550.28 755.70 600.30 725.58 642.75
  Q 724.93 643.68 724.04 642.97
  C 705.78 628.22 687.07 622.76 663.50 622.75
  C 534.01 622.72 404.50 622.81 275.00 622.43
  C 266.63 622.40 259.36 624.08 251.72 628.40
  C 245.83 631.73 239.48 635.31 235.14 640.01
  Q 234.77 640.42 234.40 640.02
  Q 232.90 638.44 231.72 636.79
  C 211.22 608.08 193.51 574.84 185.17 540.39
  Q 175.01 498.40 176.29 455.01
  Q 177.03 430.03 179.49 413.24
  C 180.31 407.59 185.04 405.68 190.47 405.34
  C 199.36 404.78 209.63 405.60 216.80 410.97
  C 226.82 418.48 240.76 423.84 250.25 434.03
  A 2.30 2.28 -18.7 0 0 251.77 434.77
  L 262.71 435.62
  A 1.26 1.26 0.0 0 0 263.99 434.82
  C 264.84 432.64 264.77 430.71 263.14 428.79
  Q 249.89 413.10 234.41 399.59
  Q 233.37 398.69 232.70 397.51
  A 0.82 0.76 30.2 0 1 232.59 397.15
  L 232.32 389.60
  Q 232.30 389.13 231.86 388.99
  C 221.42 385.70 221.23 368.53 231.65 366.43
  Q 232.24 366.32 232.24 365.72
  Z
  M 204.80 434.45
  L 204.94 425.04
  A 0.20 0.20 0.0 0 0 204.75 424.83
  L 193.55 424.66
  A 1.94 1.04 0.9 0 0 191.59 425.67
  L 191.47 433.40
  A 1.94 1.04 0.9 0 0 193.39 434.48
  L 204.59 434.65
  A 0.20 0.20 0.0 0 0 204.80 434.45
  Z
  M 552.69 465.04
  C 547.24 460.85 539.22 453.07 533.05 451.04
  Q 522.26 447.47 511.56 443.61
  Q 510.86 443.36 511.32 443.94
  Q 524.00 460.29 538.85 474.70
  A 0.70 0.69 49.2 0 0 539.74 474.77
  L 552.68 465.39
  A 0.22 0.22 0.0 0 0 552.69 465.04
  Z
  M 457.53 455.92
  C 456.17 463.56 453.85 470.65 452.23 478.15
  A 0.76 0.76 0.0 0 0 453.38 478.95
  L 479.27 462.27
  Q 479.72 461.98 479.75 461.44
  L 480.76 444.81
  Q 480.80 444.18 480.25 444.49
  Q 471.45 449.42 462.28 453.80
  C 461.13 454.35 459.45 454.53 458.16 455.11
  Q 457.63 455.35 457.53 455.92
  Z
  M 204.6548 447.2150
  A 0.60 0.60 0.0 0 0 204.0590 446.6108
  L 192.3993 446.5294
  A 0.60 0.60 0.0 0 0 191.7951 447.1252
  L 191.7252 457.1450
  A 0.60 0.60 0.0 0 0 192.3210 457.7492
  L 203.9807 457.8306
  A 0.60 0.60 0.0 0 0 204.5849 457.2348
  L 204.6548 447.2150
  Z
  M 760.08 509.68
  A 0.31 0.31 0.0 0 0 760.39 509.99
  L 768.92 510.00
  A 0.31 0.31 0.0 0 0 769.23 509.69
  L 768.86 462.90
  A 0.31 0.31 0.0 0 0 768.35 462.66
  L 759.76 469.87
  A 0.31 0.31 0.0 0 0 759.65 470.11
  L 760.08 509.68
  Z
  M 232.3107 470.3437
  A 0.27 0.27 0.0 0 0 232.0464 470.0681
  L 220.8688 469.8340
  A 0.27 0.27 0.0 0 0 220.5932 470.0982
  L 220.4093 478.8763
  A 0.27 0.27 0.0 0 0 220.6736 479.1519
  L 231.8512 479.3860
  A 0.27 0.27 0.0 0 0 232.1268 479.1218
  L 232.3107 470.3437
  Z
  M 204.6247 470.6316
  A 0.47 0.47 0.0 0 0 204.1498 470.1666
  L 191.9905 470.2939
  A 0.47 0.47 0.0 0 0 191.5254 470.7688
  L 191.6153 479.3484
  A 0.47 0.47 0.0 0 0 192.0902 479.8134
  L 204.2495 479.6861
  A 0.47 0.47 0.0 0 0 204.7146 479.2112
  L 204.6247 470.6316
  Z
  M 518.3918 482.5416
  A 0.48 0.48 0.0 0 0 517.9077 482.0658
  L 503.1482 482.1946
  A 0.48 0.48 0.0 0 0 502.6724 482.6788
  L 502.7482 491.3584
  A 0.48 0.48 0.0 0 0 503.2323 491.8342
  L 517.9918 491.7054
  A 0.48 0.48 0.0 0 0 518.4676 491.2212
  L 518.3918 482.5416
  Z
  M 231.9363 491.8100
  A 0.37 0.37 0.0 0 0 231.5676 491.4387
  L 220.8876 491.4014
  A 0.37 0.37 0.0 0 0 220.5163 491.7701
  L 220.4837 501.1100
  A 0.37 0.37 0.0 0 0 220.8524 501.4813
  L 231.5324 501.5186
  A 0.37 0.37 0.0 0 0 231.9037 501.1499
  L 231.9363 491.8100
  Z
  M 204.6823 491.9987
  A 0.26 0.26 0.0 0 0 204.4255 491.7355
  L 192.1264 491.5853
  A 0.26 0.26 0.0 0 0 191.8633 491.8421
  L 191.7377 502.1213
  A 0.26 0.26 0.0 0 0 191.9945 502.3845
  L 204.2936 502.5347
  A 0.26 0.26 0.0 0 0 204.5567 502.2779
  L 204.6823 491.9987
  Z
  M 683.2705 495.1725
  A 0.43 0.43 0.0 0 0 682.8390 494.7440
  L 667.9191 494.7961
  A 0.43 0.43 0.0 0 0 667.4906 495.2276
  L 667.5295 506.3475
  A 0.43 0.43 0.0 0 0 667.9610 506.7760
  L 682.8809 506.7239
  A 0.43 0.43 0.0 0 0 683.3094 506.2924
  L 683.2705 495.1725
  Z
  M 541.9139 498.5497
  A 0.82 0.82 0.0 0 0 541.0797 497.7442
  L 530.0014 497.9376
  A 0.82 0.82 0.0 0 0 529.1958 498.7717
  L 529.3661 508.5303
  A 0.82 0.82 0.0 0 0 530.2003 509.3358
  L 541.2786 509.1424
  A 0.82 0.82 0.0 0 0 542.0842 508.3083
  L 541.9139 498.5497
  Z
  M 565.4711 498.6001
  A 0.64 0.64 0.0 0 0 564.8299 497.9612
  L 554.7100 497.9788
  A 0.64 0.64 0.0 0 0 554.0711 498.6200
  L 554.0889 508.8599
  A 0.64 0.64 0.0 0 0 554.7301 509.4988
  L 564.8500 509.4812
  A 0.64 0.64 0.0 0 0 565.4889 508.8400
  L 565.4711 498.6001
  Z
  M 608.9416 498.7305
  A 0.90 0.90 0.0 0 0 608.0400 497.8320
  L 598.9001 497.8480
  A 0.90 0.90 0.0 0 0 598.0016 498.7496
  L 598.0184 508.3495
  A 0.90 0.90 0.0 0 0 598.9200 509.2480
  L 608.0599 509.2320
  A 0.90 0.90 0.0 0 0 608.9584 508.3304
  L 608.9416 498.7305
  Z
  M 587.5274 498.9999
  A 0.94 0.94 0.0 0 0 586.5907 498.0567
  L 577.0707 498.0234
  A 0.94 0.94 0.0 0 0 576.1275 498.9601
  L 576.0926 508.9401
  A 0.94 0.94 0.0 0 0 577.0293 509.8833
  L 586.5493 509.9166
  A 0.94 0.94 0.0 0 0 587.4925 508.9799
  L 587.5274 498.9999
  Z
  M 632.0122 498.6799
  A 0.69 0.69 0.0 0 0 631.3186 497.9935
  L 621.1587 498.0467
  A 0.69 0.69 0.0 0 0 620.4723 498.7403
  L 620.5278 509.3401
  A 0.69 0.69 0.0 0 0 621.2214 510.0265
  L 631.3813 509.9733
  A 0.69 0.69 0.0 0 0 632.0677 509.2797
  L 632.0122 498.6799
  Z
  M 746.9736 498.9256
  A 0.66 0.66 0.0 0 0 746.3090 498.2702
  L 734.8693 498.3501
  A 0.66 0.66 0.0 0 0 734.2139 499.0147
  L 734.2864 509.3944
  A 0.66 0.66 0.0 0 0 734.9510 510.0498
  L 746.3907 509.9699
  A 0.66 0.66 0.0 0 0 747.0461 509.3053
  L 746.9736 498.9256
  Z
  M 721.4250 498.9834
  A 0.26 0.26 0.0 0 0 721.1614 498.7271
  L 709.2025 498.8940
  A 0.26 0.26 0.0 0 0 708.9462 499.1576
  L 709.0950 509.8166
  A 0.26 0.26 0.0 0 0 709.3586 510.0729
  L 721.3175 509.9060
  A 0.26 0.26 0.0 0 0 721.5738 509.6424
  L 721.4250 498.9834
  Z
  M 518.5032 500.0305
  A 0.99 0.99 0.0 0 0 517.5184 499.0353
  L 504.0586 498.9648
  A 0.99 0.99 0.0 0 0 503.0634 499.9496
  L 503.0168 508.8495
  A 0.99 0.99 0.0 0 0 504.0016 509.8447
  L 517.4614 509.9152
  A 0.99 0.99 0.0 0 0 518.4566 508.9304
  L 518.5032 500.0305
  Z
  M 483.0825 505.8482
  A 0.92 0.92 0.0 0 0 482.1754 504.9155
  L 468.5768 504.7256
  A 0.92 0.92 0.0 0 0 467.6440 505.6327
  L 467.5175 514.6918
  A 0.92 0.92 0.0 0 0 468.4246 515.6245
  L 482.0232 515.8144
  A 0.92 0.92 0.0 0 0 482.9560 514.9073
  L 483.0825 505.8482
  Z
  M 300.9383 510.6718
  A 1.40 1.40 0.0 0 0 299.5407 509.2693
  L 288.8608 509.2507
  A 1.40 1.40 0.0 0 0 287.4583 510.6482
  L 287.4417 520.1682
  A 1.40 1.40 0.0 0 0 288.8393 521.5707
  L 299.5192 521.5893
  A 1.40 1.40 0.0 0 0 300.9217 520.1918
  L 300.9383 510.6718
  Z
  M 344.0311 511.9654
  A 1.13 1.13 0.0 0 0 342.9090 510.8276
  L 332.1893 510.7527
  A 1.13 1.13 0.0 0 0 331.0514 511.8748
  L 330.9889 520.8346
  A 1.13 1.13 0.0 0 0 332.1110 521.9724
  L 342.8307 522.0473
  A 1.13 1.13 0.0 0 0 343.9686 520.9252
  L 344.0311 511.9654
  Z
  M 376.7583 511.5918
  A 0.84 0.84 0.0 0 0 375.9198 510.7503
  L 364.1398 510.7297
  A 0.84 0.84 0.0 0 0 363.2983 511.5683
  L 363.2817 521.1082
  A 0.84 0.84 0.0 0 0 364.1202 521.9497
  L 375.9002 521.9703
  A 0.84 0.84 0.0 0 0 376.7417 521.1317
  L 376.7583 511.5918
  Z
  M 646.69 526.30
  L 660.95 526.20
  A 0.59 0.59 0.0 0 0 661.53 525.61
  L 661.50 520.14
  A 7.70 6.87 89.6 0 0 654.57 512.48
  L 652.87 512.50
  A 7.70 6.87 89.6 0 0 646.06 520.24
  L 646.09 525.71
  A 0.59 0.59 0.0 0 0 646.69 526.30
  Z
  M 204.7738 514.6985
  A 0.42 0.42 0.0 0 0 204.3473 514.2851
  L 192.1888 514.4761
  A 0.42 0.42 0.0 0 0 191.7754 514.9027
  L 191.9262 524.5015
  A 0.42 0.42 0.0 0 0 192.3527 524.9149
  L 204.5112 524.7239
  A 0.42 0.42 0.0 0 0 204.9246 524.2973
  L 204.7738 514.6985
  Z
  M 232.1422 514.8997
  A 0.63 0.63 0.0 0 0 231.5111 514.2708
  L 221.0111 514.2892
  A 0.63 0.63 0.0 0 0 220.3822 514.9203
  L 220.3978 523.8803
  A 0.63 0.63 0.0 0 0 221.0289 524.5092
  L 231.5289 524.4908
  A 0.63 0.63 0.0 0 0 232.1578 523.8597
  L 232.1422 514.8997
  Z
  M 699.1559 518.0504
  A 0.60 0.60 0.0 0 0 698.5507 517.4557
  L 686.0512 517.5648
  A 0.60 0.60 0.0 0 0 685.4565 518.1700
  L 685.5441 528.2096
  A 0.60 0.60 0.0 0 0 686.1493 528.8043
  L 698.6488 528.6952
  A 0.60 0.60 0.0 0 0 699.2435 528.0900
  L 699.1559 518.0504
  Z
  M 518.51 518.44
  A 0.61 0.61 0.0 0 0 517.90 517.83
  L 503.62 517.83
  A 0.61 0.61 0.0 0 0 503.01 518.44
  L 503.01 529.08
  A 0.61 0.61 0.0 0 0 503.62 529.69
  L 517.90 529.69
  A 0.61 0.61 0.0 0 0 518.51 529.08
  L 518.51 518.44
  Z
  M 632.1577 518.2641
  A 0.26 0.26 0.0 0 0 631.8932 518.0087
  L 620.1750 518.2132
  A 0.26 0.26 0.0 0 0 619.9195 518.4777
  L 620.1223 530.0959
  A 0.26 0.26 0.0 0 0 620.3868 530.3513
  L 632.1050 530.1468
  A 0.26 0.26 0.0 0 0 632.3605 529.8823
  L 632.1577 518.2641
  Z
  M 747.4412 518.4370
  A 0.27 0.27 0.0 0 0 747.1702 518.1679
  L 734.5103 518.2121
  A 0.27 0.27 0.0 0 0 734.2413 518.4831
  L 734.2788 529.2430
  A 0.27 0.27 0.0 0 0 734.5498 529.5121
  L 747.2097 529.4679
  A 0.27 0.27 0.0 0 0 747.4787 529.1969
  L 747.4412 518.4370
  Z
  M 542.0090 518.9216
  A 0.44 0.44 0.0 0 0 541.5698 518.4808
  L 529.2098 518.4592
  A 0.44 0.44 0.0 0 0 528.7691 518.8985
  L 528.7510 529.2584
  A 0.44 0.44 0.0 0 0 529.1902 529.6992
  L 541.5502 529.7208
  A 0.44 0.44 0.0 0 0 541.9909 529.2815
  L 542.0090 518.9216
  Z
  M 565.2800 518.5301
  A 0.26 0.26 0.0 0 0 565.0191 518.2710
  L 554.0991 518.3091
  A 0.26 0.26 0.0 0 0 553.8400 518.5700
  L 553.8800 530.0299
  A 0.26 0.26 0.0 0 0 554.1409 530.2890
  L 565.0609 530.2509
  A 0.26 0.26 0.0 0 0 565.3200 529.9900
  L 565.2800 518.5301
  Z
  M 608.49 518.72
  A 0.26 0.26 0.0 0 0 608.23 518.46
  L 597.93 518.46
  A 0.26 0.26 0.0 0 0 597.67 518.72
  L 597.67 529.80
  A 0.26 0.26 0.0 0 0 597.93 530.06
  L 608.23 530.06
  A 0.26 0.26 0.0 0 0 608.49 529.80
  L 608.49 518.72
  Z
  M 721.5971 519.1128
  A 0.82 0.82 0.0 0 0 720.7799 518.2899
  L 709.4000 518.2502
  A 0.82 0.82 0.0 0 0 708.5771 519.0673
  L 708.5429 528.8672
  A 0.82 0.82 0.0 0 0 709.3601 529.6901
  L 720.7400 529.7298
  A 0.82 0.82 0.0 0 0 721.5629 528.9127
  L 721.5971 519.1128
  Z
  M 588.01 529.03
  L 588.07 519.31
  A 0.77 0.77 0.0 0 0 587.31 518.54
  L 579.70 518.48
  A 3.18 1.30 0.4 0 0 576.51 519.76
  L 576.45 528.42
  A 3.18 1.30 0.4 0 0 579.62 529.74
  L 587.23 529.79
  A 0.77 0.77 0.0 0 0 588.01 529.03
  Z
  M 482.8443 522.8971
  A 0.74 0.74 0.0 0 0 482.1069 522.1546
  L 468.0469 522.1055
  A 0.74 0.74 0.0 0 0 467.3044 522.8429
  L 467.2757 531.0429
  A 0.74 0.74 0.0 0 0 468.0131 531.7854
  L 482.0731 531.8345
  A 0.74 0.74 0.0 0 0 482.8156 531.0971
  L 482.8443 522.8971
  Z
  M 395.62 546.11
  A 0.82 0.82 0.0 0 0 396.38 547.25
  L 411.74 547.12
  A 0.82 0.82 0.0 0 0 412.48 545.96
  L 404.65 528.54
  A 0.82 0.82 0.0 0 0 403.15 528.55
  L 395.62 546.11
  Z
  M 436.26 546.68
  A 0.61 0.61 0.0 0 0 436.85 547.50
  L 450.78 547.01
  A 0.61 0.61 0.0 0 0 451.32 546.15
  L 443.75 529.15
  A 0.61 0.61 0.0 0 0 442.62 529.19
  L 436.26 546.68
  Z
  M 376.8539 531.1358
  A 0.63 0.63 0.0 0 0 376.2350 530.4949
  L 364.3168 530.2869
  A 0.63 0.63 0.0 0 0 363.6759 530.9058
  L 363.4861 541.7842
  A 0.63 0.63 0.0 0 0 364.1050 542.4251
  L 376.0232 542.6331
  A 0.63 0.63 0.0 0 0 376.6641 542.0142
  L 376.8539 531.1358
  Z
  M 343.8041 531.5279
  A 0.45 0.45 0.0 0 0 343.3588 531.0732
  L 331.3395 530.9474
  A 0.45 0.45 0.0 0 0 330.8848 531.3926
  L 330.7759 541.7921
  A 0.45 0.45 0.0 0 0 331.2212 542.2468
  L 343.2405 542.3726
  A 0.45 0.45 0.0 0 0 343.6952 541.9274
  L 343.8041 531.5279
  Z
  M 301.2151 532.1717
  A 0.91 0.91 0.0 0 0 300.2988 531.2681
  L 288.2591 531.3522
  A 0.91 0.91 0.0 0 0 287.3555 532.2685
  L 287.4249 542.2083
  A 0.91 0.91 0.0 0 0 288.3412 543.1119
  L 300.3809 543.0278
  A 0.91 0.91 0.0 0 0 301.2845 542.1115
  L 301.2151 532.1717
  Z
  M 232.2869 536.1812
  A 0.27 0.27 0.0 0 0 232.0183 535.9098
  L 220.6585 535.8503
  A 0.27 0.27 0.0 0 0 220.3870 536.1189
  L 220.3331 546.4188
  A 0.27 0.27 0.0 0 0 220.6017 546.6902
  L 231.9615 546.7497
  A 0.27 0.27 0.0 0 0 232.2330 546.4811
  L 232.2869 536.1812
  Z
  M 204.78 536.41
  A 0.27 0.27 0.0 0 0 204.51 536.14
  L 193.19 536.14
  A 0.27 0.27 0.0 0 0 192.92 536.41
  L 192.92 547.19
  A 0.27 0.27 0.0 0 0 193.19 547.46
  L 204.51 547.46
  A 0.27 0.27 0.0 0 0 204.78 547.19
  L 204.78 536.41
  Z
  M 542.0885 538.9899
  A 0.27 0.27 0.0 0 0 541.8148 538.7237
  L 529.3760 538.8974
  A 0.27 0.27 0.0 0 0 529.1098 539.1712
  L 529.2715 550.7501
  A 0.27 0.27 0.0 0 0 529.5452 551.0163
  L 541.9840 550.8426
  A 0.27 0.27 0.0 0 0 542.2502 550.5688
  L 542.0885 538.9899
  Z
  M 632.0133 539.3866
  A 0.93 0.93 0.0 0 0 631.0720 538.4680
  L 620.8528 538.5929
  A 0.93 0.93 0.0 0 0 619.9342 539.5342
  L 620.0667 550.3734
  A 0.93 0.93 0.0 0 0 621.0080 551.2920
  L 631.2272 551.1671
  A 0.93 0.93 0.0 0 0 632.1458 550.2258
  L 632.0133 539.3866
  Z
  M 482.9294 539.7845
  A 0.48 0.48 0.0 0 0 482.4579 539.2962
  L 468.1000 539.0456
  A 0.48 0.48 0.0 0 0 467.6117 539.5171
  L 467.4306 549.8955
  A 0.48 0.48 0.0 0 0 467.9021 550.3838
  L 482.2600 550.6344
  A 0.48 0.48 0.0 0 0 482.7483 550.1629
  L 482.9294 539.7845
  Z
  M 518.4311 539.0252
  A 0.27 0.27 0.0 0 0 518.1578 538.7586
  L 503.1190 538.9423
  A 0.27 0.27 0.0 0 0 502.8523 539.2156
  L 502.9889 550.3948
  A 0.27 0.27 0.0 0 0 503.2622 550.6614
  L 518.3010 550.4777
  A 0.27 0.27 0.0 0 0 518.5677 550.2044
  L 518.4311 539.0252
  Z
  M 565.3408 539.4099
  A 0.66 0.66 0.0 0 0 564.6796 538.7510
  L 554.3996 538.7690
  A 0.66 0.66 0.0 0 0 553.7408 539.4301
  L 553.7592 550.0101
  A 0.66 0.66 0.0 0 0 554.4204 550.6690
  L 564.7004 550.6510
  A 0.66 0.66 0.0 0 0 565.3592 549.9899
  L 565.3408 539.4099
  Z
  M 587.9754 539.9798
  A 1.14 1.14 0.0 0 0 586.8414 538.8338
  L 577.7815 538.7864
  A 1.14 1.14 0.0 0 0 576.6356 539.9204
  L 576.5846 549.6602
  A 1.14 1.14 0.0 0 0 577.7186 550.8062
  L 586.7785 550.8536
  A 1.14 1.14 0.0 0 0 587.9244 549.7196
  L 587.9754 539.9798
  Z
  M 608.7907 539.1497
  A 0.26 0.26 0.0 0 0 608.5339 538.8865
  L 597.7147 538.7544
  A 0.26 0.26 0.0 0 0 597.4515 539.0112
  L 597.3093 550.6503
  A 0.26 0.26 0.0 0 0 597.5661 550.9135
  L 608.3853 551.0456
  A 0.26 0.26 0.0 0 0 608.6485 550.7888
  L 608.7907 539.1497
  Z
  M 699.1460 539.3472
  A 0.61 0.61 0.0 0 0 698.5276 538.7458
  L 686.3888 538.9153
  A 0.61 0.61 0.0 0 0 685.7873 539.5338
  L 685.9340 550.0328
  A 0.61 0.61 0.0 0 0 686.5524 550.6342
  L 698.6912 550.4647
  A 0.61 0.61 0.0 0 0 699.2927 549.8462
  L 699.1460 539.3472
  Z
  M 747.3208 538.9516
  A 0.26 0.26 0.0 0 0 747.0581 538.6944
  L 734.4588 538.8263
  A 0.26 0.26 0.0 0 0 734.2015 539.0890
  L 734.3192 550.3284
  A 0.26 0.26 0.0 0 0 734.5819 550.5856
  L 747.1812 550.4537
  A 0.26 0.26 0.0 0 0 747.4385 550.1910
  L 747.3208 538.9516
  Z
  M 721.22 539.43
  A 0.26 0.26 0.0 0 0 720.96 539.17
  L 708.98 539.17
  A 0.26 0.26 0.0 0 0 708.72 539.43
  L 708.72 550.25
  A 0.26 0.26 0.0 0 0 708.98 550.51
  L 720.96 550.51
  A 0.26 0.26 0.0 0 0 721.22 550.25
  L 721.22 539.43
  Z
  M 376.7374 552.1338
  A 0.86 0.86 0.0 0 0 375.8819 551.2694
  L 364.7021 551.2108
  A 0.86 0.86 0.0 0 0 363.8376 552.0663
  L 363.7826 562.5662
  A 0.86 0.86 0.0 0 0 364.6381 563.4306
  L 375.8179 563.4892
  A 0.86 0.86 0.0 0 0 376.6824 562.6337
  L 376.7374 552.1338
  Z
  M 342.86 551.78
  L 332.00 551.68
  A 0.96 0.96 0.0 0 0 331.04 552.63
  L 330.97 560.45
  A 5.47 3.74 0.5 0 0 336.41 564.24
  L 338.25 564.26
  A 5.47 3.74 0.5 0 0 343.75 560.57
  L 343.82 552.75
  A 0.96 0.96 0.0 0 0 342.86 551.78
  Z
  M 301.1515 553.8944
  A 0.31 0.31 0.0 0 0 300.8399 553.5860
  L 287.8201 553.6542
  A 0.31 0.31 0.0 0 0 287.5117 553.9658
  L 287.5685 564.8056
  A 0.31 0.31 0.0 0 0 287.8801 565.1140
  L 300.8999 565.0458
  A 0.31 0.31 0.0 0 0 301.2083 564.7342
  L 301.1515 553.8944
  Z
  M 482.6365 561.1363
  A 0.64 0.64 0.0 0 0 481.9988 560.4941
  L 468.2189 560.4460
  A 0.64 0.64 0.0 0 0 467.5766 561.0837
  L 467.5435 570.5837
  A 0.64 0.64 0.0 0 0 468.1812 571.2259
  L 481.9611 571.2740
  A 0.64 0.64 0.0 0 0 482.6034 570.6363
  L 482.6365 561.1363
  Z
  M 588.76 569.93
  L 588.64 561.75
  A 1.26 1.26 0.0 0 0 587.36 560.51
  L 580.05 560.61
  A 2.64 2.40 -0.8 0 0 577.44 563.05
  L 577.52 568.95
  A 2.64 2.40 -0.8 0 0 580.19 571.31
  L 587.51 571.21
  A 1.26 1.26 0.0 0 0 588.76 569.93
  Z
  M 620.54 570.98
  L 630.88 571.04
  A 0.82 0.82 0.0 0 0 631.71 570.22
  L 631.74 564.14
  A 3.62 1.24 -89.7 0 0 630.52 560.51
  L 621.02 560.47
  A 3.62 1.24 -89.7 0 0 619.76 564.08
  L 619.73 570.16
  A 0.82 0.82 0.0 0 0 620.54 570.98
  Z
  M 747.1647 561.7829
  A 1.24 1.24 0.0 0 0 745.9290 560.5386
  L 735.3091 560.5015
  A 1.24 1.24 0.0 0 0 734.0647 561.7372
  L 734.0353 570.1571
  A 1.24 1.24 0.0 0 0 735.2710 571.4014
  L 745.8909 571.4385
  A 1.24 1.24 0.0 0 0 747.1353 570.2028
  L 747.1647 561.7829
  Z
  M 518.2665 561.4068
  A 0.62 0.62 0.0 0 0 517.6487 560.7846
  L 503.5488 560.7354
  A 0.62 0.62 0.0 0 0 502.9266 561.3533
  L 502.8935 570.8532
  A 0.62 0.62 0.0 0 0 503.5113 571.4754
  L 517.6112 571.5246
  A 0.62 0.62 0.0 0 0 518.2334 570.9067
  L 518.2665 561.4068
  Z
  M 541.9982 561.3116
  A 0.44 0.44 0.0 0 0 541.5590 560.8708
  L 529.1990 560.8492
  A 0.44 0.44 0.0 0 0 528.7583 561.2885
  L 528.7418 570.7484
  A 0.44 0.44 0.0 0 0 529.1810 571.1892
  L 541.5410 571.2108
  A 0.44 0.44 0.0 0 0 541.9817 570.7715
  L 541.9982 561.3116
  Z
  M 565.2457 561.1283
  A 0.27 0.27 0.0 0 0 564.9805 560.8536
  L 554.3421 560.6679
  A 0.27 0.27 0.0 0 0 554.0674 560.9332
  L 553.8943 570.8517
  A 0.27 0.27 0.0 0 0 554.1595 571.1264
  L 564.7979 571.3121
  A 0.27 0.27 0.0 0 0 565.0726 571.0468
  L 565.2457 561.1283
  Z
  M 608.9445 562.0516
  A 1.20 1.20 0.0 0 0 607.7550 560.8411
  L 598.3754 560.7593
  A 1.20 1.20 0.0 0 0 597.1650 561.9488
  L 597.0955 569.9084
  A 1.20 1.20 0.0 0 0 598.2850 571.1189
  L 607.6646 571.2007
  A 1.20 1.20 0.0 0 0 608.8750 570.0112
  L 608.9445 562.0516
  Z
  M 657.93 584.01
  L 672.55 583.95
  A 1.43 1.43 0.0 0 0 673.98 582.52
  L 673.94 573.35
  A 12.62 8.58 89.8 0 0 665.32 560.76
  L 665.00 560.76
  A 12.62 8.58 89.8 0 0 656.46 573.41
  L 656.50 582.58
  A 1.43 1.43 0.0 0 0 657.93 584.01
  Z
  M 698.9923 561.7283
  A 0.99 0.99 0.0 0 0 698.0006 560.7400
  L 686.5406 560.7600
  A 0.99 0.99 0.0 0 0 685.5524 561.7517
  L 685.5677 570.5117
  A 0.99 0.99 0.0 0 0 686.5594 571.5000
  L 698.0194 571.4800
  A 0.99 0.99 0.0 0 0 699.0076 570.4883
  L 698.9923 561.7283
  Z
  M 721.7048 561.7166
  A 0.90 0.90 0.0 0 0 720.8143 560.8073
  L 709.9349 560.6933
  A 0.90 0.90 0.0 0 0 709.0255 561.5838
  L 708.9352 570.2034
  A 0.90 0.90 0.0 0 0 709.8257 571.1127
  L 720.7051 571.2267
  A 0.90 0.90 0.0 0 0 721.6145 570.3362
  L 721.7048 561.7166
  Z
  M 377.13 572.05
  A 0.27 0.27 0.0 0 0 376.86 571.78
  L 363.48 571.78
  A 0.27 0.27 0.0 0 0 363.21 572.05
  L 363.21 583.49
  A 0.27 0.27 0.0 0 0 363.48 583.76
  L 376.86 583.76
  A 0.27 0.27 0.0 0 0 377.13 583.49
  L 377.13 572.05
  Z
  M 301.3876 577.5246
  A 0.85 0.85 0.0 0 0 300.5405 576.6716
  L 288.1806 576.6285
  A 0.85 0.85 0.0 0 0 287.3276 577.4755
  L 287.2924 587.5554
  A 0.85 0.85 0.0 0 0 288.1395 588.4084
  L 300.4994 588.4515
  A 0.85 0.85 0.0 0 0 301.3524 587.6045
  L 301.3876 577.5246
  Z"
/>
<path fill="#00f5c9" d="
  M 842.84 394.33
  C 809.36 394.54 792.93 343.08 819.53 324.00
  Q 823.45 321.19 832.13 318.26
  Q 858.93 309.21 885.79 300.40
  Q 886.31 300.23 886.49 300.75
  L 892.40 318.49
  Q 892.54 318.90 892.13 319.03
  Q 866.08 327.65 840.09 336.30
  C 833.11 338.62 828.79 340.53 825.85 346.60
  C 819.02 360.75 832.41 378.60 848.18 373.42
  Q 875.99 364.28 903.71 355.01
  A 0.76 0.76 0.0 0 1 904.68 355.49
  L 910.43 373.04
  Q 910.57 373.47 910.14 373.62
  Q 882.31 382.94 854.46 391.96
  Q 847.26 394.30 842.84 394.33
  Z"
/>
<path fill="#00f5c9" d="
  M 112.91 344.44
  L 107.46 362.29
  A 0.60 0.59 16.7 0 1 106.72 362.68
  L 93.73 358.75
  Q 93.15 358.57 93.33 358.00
  L 104.18 321.98
  Q 104.33 321.51 104.81 321.62
  Q 114.23 323.85 120.32 326.39
  C 158.07 342.11 146.92 396.58 110.78 404.56
  Q 101.67 406.57 91.19 404.73
  C 68.25 400.70 47.87 385.50 47.98 360.25
  C 48.08 336.88 65.81 315.93 90.69 318.11
  A 0.69 0.69 0.0 0 1 91.29 319.00
  L 85.89 336.95
  Q 85.76 337.39 85.30 337.41
  Q 72.58 337.90 67.72 349.50
  C 54.24 381.63 114.02 400.82 124.56 370.93
  C 128.59 359.48 125.86 348.80 113.92 343.96
  A 0.76 0.76 0.0 0 0 112.91 344.44
  Z"
/>
<ellipse fill="#00f5c9" cx="0.00" cy="0.00" transform="translate(589.50,342.28) rotate(85.0)" rx="11.72" ry="10.84"/>
<circle fill="#00f5c9" cx="369.37" cy="338.99" r="5.39"/>
<path fill="#00f5c9" d="
  M 723.06 410.25
  Q 723.55 411.30 724.43 410.55
  L 767.87 373.34
  A 0.68 0.67 -28.4 0 1 768.96 373.66
  L 773.13 387.64
  A 0.60 0.60 0.0 0 1 772.48 388.41
  Q 769.01 387.99 766.08 390.33
  Q 748.92 403.99 730.98 416.61
  C 728.81 418.14 726.27 418.79 723.78 419.67
  A 1.57 1.55 8.4 0 0 723.02 420.23
  Q 718.67 426.14 711.06 424.92
  C 704.83 423.92 701.85 419.14 700.37 413.53
  C 698.01 404.58 704.26 401.66 711.65 399.58
  Q 712.15 399.44 712.22 398.94
  L 713.49 389.86
  Q 713.56 389.34 714.02 389.08
  Q 718.01 386.83 723.05 382.80
  Q 742.49 367.26 760.80 350.53
  A 0.49 0.49 0.0 0 1 761.60 350.73
  L 766.23 363.98
  Q 766.46 364.64 765.77 364.58
  C 759.94 364.12 758.98 367.09 755.28 370.01
  Q 735.79 385.32 716.80 401.18
  Q 716.36 401.54 716.86 401.83
  C 720.30 403.76 721.54 407.04 723.06 410.25
  Z"
/>
<path fill="#00f5c9" d="
  M 864.22 472.28
  L 830.70 493.46
  A 0.60 0.60 0.0 0 1 829.78 492.99
  L 828.56 472.80
  Q 828.53 472.30 828.96 472.03
  L 859.56 453.06
  A 1.43 1.42 72.3 0 0 860.23 451.75
  L 859.46 438.72
  A 0.47 0.47 0.0 0 0 858.96 438.28
  L 827.05 440.32
  Q 826.49 440.36 826.45 439.80
  L 825.20 421.25
  Q 825.17 420.73 825.69 420.70
  L 917.51 414.83
  Q 918.04 414.80 918.08 415.33
  Q 919.41 433.37 920.37 451.43
  C 921.27 468.36 914.61 482.60 896.78 486.03
  Q 875.55 490.12 864.83 472.42
  Q 864.60 472.04 864.22 472.28
  Z
  M 902.10 435.34
  L 876.31 436.96
  A 1.27 1.27 0.0 0 0 875.12 438.31
  L 876.05 452.98
  A 14.43 13.39 86.4 0 0 890.32 466.54
  L 891.91 466.44
  A 14.43 13.39 86.4 0 0 904.37 451.20
  L 903.45 436.53
  A 1.27 1.27 0.0 0 0 902.10 435.34
  Z"
/>
<path fill="#00f5c9" d="
  M 90.25 444.94
  L 125.87 426.88
  Q 126.50 426.56 126.47 427.27
  L 125.75 447.68
  A 1.20 1.19 -12.6 0 1 125.09 448.71
  L 92.75 464.57
  A 0.83 0.83 0.0 0 0 92.28 465.30
  L 91.87 478.80
  Q 91.86 479.23 92.29 479.24
  L 124.18 480.28
  A 0.64 0.63 1.8 0 1 124.80 480.93
  L 124.19 499.51
  Q 124.18 499.94 123.74 499.93
  L 31.98 497.06
  Q 31.15 497.04 31.17 496.21
  Q 31.70 476.83 32.53 457.02
  Q 32.99 446.02 39.79 437.93
  C 52.88 422.37 81.46 424.87 89.37 444.61
  Q 89.63 445.25 90.25 444.94
  Z
  M 48.78 478.02
  L 75.03 478.98
  A 1.05 1.05 0.0 0 0 76.11 477.97
  L 76.66 463.04
  A 14.35 13.19 -87.9 0 0 64.01 448.22
  L 62.03 448.14
  A 14.35 13.19 -87.9 0 0 48.32 462.00
  L 47.77 476.93
  A 1.05 1.05 0.0 0 0 48.78 478.02
  Z"
/>
<path fill="#00f5c9" d="
  M 843.79 592.52
  C 809.31 579.92 812.22 530.44 842.81 516.20
  C 855.66 510.22 870.81 511.38 884.31 515.95
  C 907.25 523.74 919.07 544.50 912.82 568.32
  C 907.86 587.21 893.90 599.00 873.74 598.48
  Q 872.48 598.45 872.73 597.22
  L 876.33 579.24
  Q 876.44 578.67 877.02 578.69
  C 888.65 579.05 896.64 569.61 896.97 558.82
  C 897.52 540.97 880.74 533.73 865.96 532.21
  C 851.47 530.72 838.46 536.55 836.67 552.40
  C 835.60 561.78 839.20 569.16 847.81 573.00
  Q 848.28 573.22 848.18 573.72
  L 844.41 592.18
  A 0.47 0.46 16.1 0 1 843.79 592.52
  Z"
/>
<path fill="#00f5c9" d="
  M 118.81 562.72
  L 110.19 521.32
  A 0.46 0.46 0.0 0 1 110.55 520.78
  L 125.54 517.61
  A 0.46 0.46 0.0 0 1 126.08 517.96
  L 138.68 578.70
  A 0.46 0.46 0.0 0 1 138.32 579.24
  L 48.08 597.95
  A 0.46 0.46 0.0 0 1 47.54 597.59
  L 34.97 537.07
  A 0.46 0.46 0.0 0 1 35.33 536.53
  L 50.34 533.41
  A 0.46 0.46 0.0 0 1 50.88 533.77
  L 59.41 575.04
  A 0.46 0.46 0.0 0 0 59.95 575.40
  L 80.79 571.06
  A 0.46 0.46 0.0 0 0 81.15 570.52
  L 73.22 532.43
  A 0.46 0.46 0.0 0 1 73.58 531.89
  L 88.60 528.78
  A 0.46 0.46 0.0 0 1 89.14 529.14
  L 97.02 567.26
  A 0.46 0.46 0.0 0 0 97.56 567.62
  L 118.45 563.26
  A 0.46 0.46 0.0 0 0 118.81 562.72
  Z"
/>
<path fill="#00f5c9" d="
  M 847.28 643.47
  L 830.38 678.43
  A 0.51 0.51 0.0 0 1 829.70 678.67
  L 816.03 672.05
  A 0.51 0.51 0.0 0 1 815.79 671.37
  L 832.65 636.45
  A 0.51 0.51 0.0 0 0 832.41 635.77
  L 813.33 626.56
  A 0.51 0.51 0.0 0 0 812.65 626.80
  L 794.26 664.83
  A 0.51 0.51 0.0 0 1 793.58 665.06
  L 779.94 658.38
  A 0.51 0.51 0.0 0 1 779.70 657.70
  L 806.58 602.00
  A 0.51 0.51 0.0 0 1 807.26 601.76
  L 890.16 641.76
  A 0.51 0.51 0.0 0 1 890.40 642.44
  L 863.59 698.04
  A 0.51 0.51 0.0 0 1 862.91 698.28
  L 849.22 691.63
  A 0.51 0.51 0.0 0 1 848.98 690.95
  L 867.26 653.15
  A 0.51 0.51 0.0 0 0 867.02 652.47
  L 847.96 643.23
  A 0.51 0.51 0.0 0 0 847.28 643.47
  Z"
/>
<path fill="#00f5c9" d="
  M 106.67 632.65
  A 0.55 0.55 0.0 0 0 107.62 632.15
  C 100.96 610.36 124.26 594.35 142.99 605.86
  Q 150.58 610.52 154.32 618.19
  Q 163.94 637.88 173.10 657.64
  A 0.81 0.81 0.0 0 1 172.71 658.71
  L 89.84 697.86
  Q 89.36 698.09 89.13 697.61
  Q 80.87 680.41 72.76 663.42
  C 67.63 652.65 66.60 637.57 76.45 629.57
  C 86.09 621.75 98.62 622.39 106.67 632.65
  Z
  M 128.94 657.69
  L 149.75 647.98
  A 0.99 0.99 0.0 0 0 150.23 646.67
  L 143.24 631.67
  A 14.40 11.91 65.0 0 0 126.36 623.65
  L 125.34 624.12
  A 14.40 11.91 65.0 0 0 120.63 642.21
  L 127.63 657.21
  A 0.99 0.99 0.0 0 0 128.94 657.69
  Z
  M 96.13 673.34
  L 115.40 664.06
  A 0.92 0.92 0.0 0 0 115.83 662.84
  L 109.63 649.95
  A 13.50 10.91 64.3 0 0 93.94 642.52
  L 92.68 643.12
  A 13.50 10.91 64.3 0 0 88.71 660.02
  L 94.91 672.91
  A 0.92 0.92 0.0 0 0 96.13 673.34
  Z"
/>
<path fill="#00f5c9" d="
  M 496.26 637.67
  C 552.90 637.18 609.60 637.71 666.26 637.46
  C 685.68 637.38 699.93 644.44 716.37 653.99
  Q 716.82 654.25 716.47 654.64
  L 698.25 675.13
  Q 697.77 675.67 697.33 675.10
  C 691.62 667.72 682.73 660.72 673.11 660.24
  C 666.77 659.93 658.94 658.71 656.30 661.54
  C 650.21 668.05 642.08 667.87 634.00 665.76
  C 623.72 663.07 614.96 660.40 603.31 659.74
  C 581.64 658.51 560.97 657.61 539.83 663.65
  C 535.74 664.82 531.65 668.69 528.03 669.08
  Q 522.13 669.71 510.56 667.21
  C 498.95 664.70 483.93 660.48 469.22 660.54
  Q 405.36 660.81 341.50 660.19
  Q 329.71 660.07 320.34 667.31
  C 313.58 672.53 293.05 668.54 288.58 660.92
  C 287.81 659.61 286.40 659.99 285.10 659.99
  C 271.83 660.03 263.94 659.67 253.37 664.39
  Q 252.91 664.60 252.60 664.19
  L 243.67 652.05
  Q 243.34 651.60 243.82 651.32
  C 253.69 645.41 263.44 637.43 275.31 637.47
  C 313.56 637.60 351.90 638.19 390.14 637.72
  C 427.92 637.25 462.80 637.96 496.26 637.67
  Z"
/>
<path fill="#00f5c9" d="
  M 305.79 714.72
  C 291.29 704.29 275.68 692.05 261.40 677.28
  A 0.46 0.46 0.0 0 1 261.58 676.53
  Q 270.03 673.65 278.77 674.70
  C 284.45 675.38 288.43 680.54 293.69 682.62
  Q 306.91 687.85 320.75 683.01
  C 329.68 679.88 335.89 674.64 347.06 674.70
  Q 409.65 675.01 472.25 674.74
  Q 477.54 674.71 483.20 676.43
  Q 497.69 680.83 512.59 683.62
  Q 526.84 686.29 539.25 680.76
  C 550.53 675.73 558.98 674.11 572.20 673.86
  C 587.34 673.57 601.84 672.68 613.75 676.24
  C 623.88 679.27 635.51 682.94 645.75 682.26
  C 650.46 681.95 654.10 679.80 658.09 677.17
  C 669.94 669.37 678.63 678.80 688.12 684.40
  Q 688.61 684.69 688.19 685.07
  Q 672.51 699.39 655.57 712.06
  Q 653.51 713.59 651.28 714.84
  Q 650.85 715.09 650.41 714.83
  C 641.99 709.85 631.77 706.27 621.95 701.62
  C 607.27 694.66 595.29 690.89 580.26 690.80
  C 570.26 690.74 559.51 694.94 550.11 698.88
  C 541.21 702.60 532.78 708.53 524.32 713.79
  Q 523.86 714.08 523.44 713.76
  C 498.36 695.25 461.88 688.67 433.19 702.68
  C 418.96 709.63 407.76 698.40 395.44 694.29
  Q 381.17 689.53 366.49 690.53
  C 345.13 691.98 324.97 703.89 306.67 714.76
  Q 306.22 715.03 305.79 714.72
  Z"
/>
<path fill="#00f5c9" d="
  M 577.19 725.88
  L 564.92 726.30
  A 0.93 0.92 -77.0 0 0 564.14 726.79
  Q 561.73 731.30 557.41 733.96
  Q 556.92 734.26 556.35 734.22
  C 549.38 733.75 542.34 728.98 537.48 724.11
  A 0.61 0.61 0.0 0 1 537.60 723.16
  C 548.26 716.80 561.17 709.39 572.64 707.31
  C 589.73 704.20 604.44 710.00 619.89 717.42
  C 626.27 720.48 631.12 722.34 637.32 723.75
  A 0.54 0.54 0.0 0 1 637.34 724.80
  Q 634.19 725.64 631.15 727.38
  C 604.97 742.35 576.30 753.93 546.75 760.76
  Q 536.16 763.21 528.00 764.05
  Q 527.50 764.10 527.16 763.75
  C 511.45 747.51 493.44 732.75 468.83 731.11
  C 461.52 730.62 452.77 731.80 447.07 736.79
  C 443.54 739.88 442.11 744.23 436.19 745.66
  C 421.57 749.17 400.41 735.87 388.16 728.76
  C 382.89 725.70 375.47 725.62 369.55 725.70
  Q 368.98 725.70 369.19 726.23
  Q 371.84 732.70 377.07 737.19
  C 387.89 746.49 396.64 752.93 409.05 756.77
  C 424.53 761.55 442.41 766.43 454.50 751.50
  C 457.74 747.50 460.24 746.26 465.64 746.56
  C 483.21 747.55 495.77 753.86 506.83 767.43
  A 0.48 0.48 0.0 0 1 506.46 768.21
  C 496.45 768.20 486.58 769.28 476.57 768.88
  Q 466.03 768.45 455.49 768.17
  C 432.14 767.55 408.90 763.71 386.85 755.96
  C 364.24 748.01 340.01 738.06 320.12 724.49
  A 0.29 0.29 0.0 0 1 320.15 723.99
  C 339.32 713.87 361.17 702.20 383.17 707.16
  C 402.15 711.45 412.85 723.64 433.36 718.97
  C 438.48 717.80 444.83 714.99 450.50 713.00
  C 469.88 706.20 493.77 712.49 510.74 722.87
  C 524.70 731.40 540.01 749.53 557.50 749.79
  C 564.77 749.89 574.40 731.80 577.64 726.67
  Q 578.16 725.85 577.19 725.88
  Z"
/>
</svg>
