<?xml version="1.0" encoding="UTF-8" standalone="no"?>
<!DOCTYPE svg PUBLIC "-//W3C//DTD SVG 1.1//EN" "http://www.w3.org/Graphics/SVG/1.1/DTD/svg11.dtd">
<svg xmlns="http://www.w3.org/2000/svg" version="1.1" viewBox="0.00 0.00 954.00 883.00">
<path fill="var(--primary-color)" d="
  M 506.94 71.86
  L 545.35 75.79
  A 0.60 0.60 0.0 0 1 545.89 76.45
  L 544.39 91.41
  A 0.60 0.60 0.0 0 1 543.73 91.95
  L 505.28 87.99
  A 0.60 0.60 0.0 0 0 504.62 88.53
  L 502.49 109.47
  A 0.60 0.60 0.0 0 0 503.03 110.13
  L 544.82 114.37
  A 0.60 0.60 0.0 0 1 545.36 115.03
  L 543.86 130.00
  A 0.60 0.60 0.0 0 1 543.20 130.54
  L 481.80 124.24
  A 0.60 0.60 0.0 0 1 481.26 123.58
  L 490.62 32.18
  A 0.60 0.60 0.0 0 1 491.28 31.64
  L 552.47 37.91
  A 0.60 0.60 0.0 0 1 553.01 38.57
  L 551.49 53.52
  A 0.60 0.60 0.0 0 1 550.83 54.06
  L 509.21 49.78
  A 0.60 0.60 0.0 0 0 508.55 50.32
  L 506.40 71.20
  A 0.60 0.60 0.0 0 0 506.94 71.86
  Z"
/>
<path fill="var(--primary-color)" d="
  M 412.75 101.03
  L 416.58 129.85
  Q 416.65 130.38 416.13 130.45
  L 397.51 132.99
  A 0.35 0.35 0.0 0 1 397.11 132.69
  L 384.95 41.27
  A 0.50 0.50 0.0 0 1 385.38 40.70
  Q 401.29 38.51 417.23 36.51
  Q 428.36 35.12 433.78 35.97
  C 451.55 38.77 461.95 56.99 458.20 74.30
  C 453.27 97.11 431.93 97.94 413.21 100.43
  Q 412.68 100.50 412.75 101.03
  Z
  M 406.63 54.75
  L 410.51 84.21
  A 0.68 0.68 0.0 0 0 411.27 84.80
  L 425.16 82.97
  A 15.47 14.49 -7.5 0 0 438.61 66.58
  L 438.33 64.50
  A 15.47 14.49 -7.5 0 0 421.10 52.15
  L 407.21 53.98
  A 0.68 0.68 0.0 0 0 406.63 54.75
  Z"
/>
<path fill="var(--primary-color)" d="
  M 627.72 121.24
  L 647.81 66.74
  A 0.39 0.39 0.0 0 1 648.31 66.50
  L 665.93 73.01
  A 0.39 0.39 0.0 0 1 666.17 73.51
  L 634.27 160.11
  A 0.39 0.39 0.0 0 1 633.77 160.35
  L 618.38 154.68
  A 0.39 0.39 0.0 0 1 618.14 154.41
  L 600.44 85.64
  A 0.39 0.39 0.0 0 0 599.70 85.60
  L 579.68 140.01
  A 0.39 0.39 0.0 0 1 579.18 140.25
  L 561.44 133.72
  A 0.39 0.39 0.0 0 1 561.20 133.22
  L 593.11 46.62
  A 0.39 0.39 0.0 0 1 593.61 46.38
  L 609.26 52.13
  A 0.39 0.39 0.0 0 1 609.50 52.40
  L 626.98 121.20
  A 0.39 0.39 0.0 0 0 627.72 121.24
  Z"
/>
<path fill="var(--primary-color)" d="
  M 288.69 76.44
  C 309.40 55.32 341.81 58.01 357.67 83.57
  C 371.24 105.43 372.67 134.52 348.58 150.08
  C 326.71 164.20 299.62 158.50 286.70 135.56
  C 275.86 116.31 272.20 93.24 288.69 76.44
  Z
  M 322.95 80.35
  C 307.54 78.22 294.99 90.88 297.13 106.32
  C 299.21 121.24 309.83 142.46 328.10 139.77
  C 339.59 138.07 348.39 129.09 348.00 116.99
  C 347.57 103.48 338.18 82.45 322.95 80.35
  Z"
/>
<path fill="var(--primary-color)" d="
  M 695.95 163.76
  L 709.40 175.28
  Q 709.79 175.62 709.51 176.06
  Q 703.94 184.96 710.32 193.45
  C 714.77 199.38 723.40 205.96 731.33 202.65
  C 740.51 198.81 735.59 188.75 731.69 183.29
  C 723.14 171.35 709.93 155.74 718.44 140.96
  C 738.69 105.79 798.79 148.44 775.12 181.47
  A 0.68 0.68 0.0 0 1 774.13 181.59
  L 760.73 170.25
  A 0.80 0.79 35.7 0 1 760.56 169.23
  C 768.57 155.52 745.23 137.87 736.92 149.61
  C 732.52 155.83 738.54 163.36 742.15 168.52
  C 748.53 177.65 756.61 187.33 755.60 199.28
  C 754.87 207.80 748.75 216.52 740.95 219.98
  C 725.21 226.96 708.51 216.62 698.29 205.13
  C 687.18 192.64 683.88 178.21 695.02 163.86
  Q 695.44 163.32 695.95 163.76
  Z"
/>
<path fill="var(--primary-color)" d="
  M 216.76 239.40
  L 203.42 252.40
  A 0.50 0.50 0.0 0 1 202.71 252.39
  L 138.44 186.53
  A 0.50 0.50 0.0 0 1 138.45 185.82
  L 150.28 174.26
  A 0.50 0.50 0.0 0 1 150.73 174.13
  L 220.02 187.96
  A 0.50 0.50 0.0 0 0 220.48 187.12
  L 180.17 145.88
  A 0.50 0.50 0.0 0 1 180.17 145.17
  L 193.37 132.08
  A 0.50 0.50 0.0 0 1 194.08 132.09
  L 258.47 198.10
  A 0.50 0.50 0.0 0 1 258.46 198.81
  L 246.70 210.13
  A 0.50 0.50 0.0 0 1 246.25 210.26
  L 177.04 196.69
  A 0.50 0.50 0.0 0 0 176.58 197.53
  L 216.77 238.69
  A 0.50 0.50 0.0 0 1 216.76 239.40
  Z"
/>
<path fill="var(--primary-color)" d="
  M 486.34 266.88
  C 478.05 264.55 475.38 252.23 483.07 247.75
  A 0.92 0.91 -16.6 0 0 483.52 246.93
  Q 482.43 211.43 483.06 196.01
  Q 483.48 185.65 482.98 178.64
  A 0.89 0.88 -80.8 0 0 482.45 177.89
  C 476.15 175.19 473.93 166.73 475.07 160.72
  C 477.06 150.25 487.55 145.32 496.46 151.82
  C 505.59 158.49 504.51 172.25 494.51 177.89
  Q 494.09 178.13 494.09 178.61
  L 493.75 247.48
  Q 493.75 248.08 494.27 248.38
  C 502.86 253.32 496.41 269.71 486.34 266.88
  Z"
/>
<path fill="var(--primary-color)" d="
  M 456.16 292.72
  A 0.47 0.47 0.0 0 0 456.86 293.13
  C 462.56 289.85 467.93 294.38 467.24 300.50
  C 465.80 313.14 450.64 314.55 446.05 303.25
  C 444.09 298.42 445.72 290.38 445.72 285.69
  Q 445.76 237.84 445.76 190.00
  C 445.76 181.54 446.29 172.01 446.37 162.99
  Q 446.37 162.49 446.65 162.07
  C 450.62 156.04 456.55 159.86 456.51 166.22
  C 456.21 208.38 456.61 250.57 456.16 292.72
  Z"
/>
<path fill="var(--primary-color)" d="
  M 538.09 292.30
  C 540.48 310.41 513.38 311.92 512.85 294.28
  Q 512.59 285.81 519.33 280.31
  Q 519.72 279.99 519.72 279.48
  L 519.87 228.80
  Q 519.87 228.20 519.31 228.00
  L 515.85 226.78
  A 0.67 0.53 -6.3 0 1 515.74 226.71
  C 506.90 218.77 508.85 203.77 519.50 198.45
  Q 519.96 198.22 519.96 197.71
  Q 520.09 182.83 519.97 167.95
  C 519.91 159.65 529.19 158.38 529.42 165.81
  Q 529.83 178.62 529.25 199.03
  Q 529.23 199.54 529.69 199.79
  C 540.65 205.75 542.95 221.16 530.39 226.67
  A 1.01 1.01 0.0 0 0 529.78 227.58
  L 529.35 279.60
  Q 529.35 280.11 529.80 280.35
  Q 537.00 284.05 538.09 292.30
  Z"
/>
<path fill="var(--primary-color)" d="
  M 426.36 251.73
  Q 427.49 251.87 427.49 250.74
  Q 427.39 209.41 427.82 170.48
  C 427.86 167.13 428.35 159.18 433.92 162.08
  C 436.58 163.47 436.24 166.41 436.25 169.08
  Q 436.30 214.65 435.50 248.00
  Q 435.42 251.08 433.34 253.85
  A 0.82 0.81 -41.6 0 0 433.28 254.74
  C 437.15 261.59 438.84 273.20 428.82 276.04
  C 408.35 281.83 404.57 249.10 426.36 251.73
  Z"
/>
<path fill="var(--primary-color)" d="
  M 541.53 172.13
  C 545.03 167.22 549.51 168.11 549.56 174.50
  Q 549.96 223.62 549.41 240.68
  Q 549.29 244.40 544.91 244.52
  A 0.88 0.82 -28.4 0 1 544.42 244.39
  Q 542.25 243.12 541.30 240.70
  A 0.65 0.65 0.0 0 1 541.25 240.45
  Q 540.97 206.57 541.35 172.69
  A 0.96 0.95 63.1 0 1 541.53 172.13
  Z"
/>
<path fill="var(--primary-color)" d="
  M 396.51 180.26
  C 396.63 169.10 417.39 169.51 417.25 182.75
  Q 416.92 214.02 416.65 228.93
  C 416.54 235.38 407.73 236.06 406.77 230.00
  C 406.02 225.29 406.91 216.31 406.11 208.72
  A 1.09 1.05 -77.6 0 0 405.63 207.94
  C 395.28 201.17 396.40 190.37 396.51 180.26
  Z"
/>
<path fill="var(--primary-color)" d="
  M 571.31 256.44
  C 559.88 254.14 559.30 237.99 569.14 233.68
  Q 569.63 233.46 569.65 232.93
  C 570.29 216.84 569.70 203.35 570.05 184.75
  Q 570.14 179.72 571.10 176.52
  A 1.14 1.13 88.0 0 1 571.78 175.78
  C 576.66 173.83 578.70 176.76 578.71 181.25
  Q 578.76 204.34 579.04 227.43
  C 579.06 229.04 578.47 231.87 578.83 234.17
  A 1.39 1.38 -73.8 0 0 579.26 234.96
  C 587.51 242.59 584.98 259.19 571.31 256.44
  Z"
/>
<ellipse fill="var(--primary-color)" cx="0.00" cy="0.00" transform="translate(378.73,190.82) rotate(128.5)" rx="13.52" ry="12.71"/>
<path fill="var(--primary-color)" d="
  M 600.97 255.84
  A 2.24 2.23 77.1 0 0 602.21 253.85
  L 602.61 218.81
  Q 602.61 218.12 601.97 217.89
  Q 586.93 212.56 590.72 195.93
  C 593.54 183.57 608.80 184.61 614.72 193.02
  C 616.90 196.11 619.75 205.21 615.98 208.64
  Q 615.62 208.97 615.62 209.45
  Q 615.21 233.19 615.24 256.92
  C 615.24 258.14 614.76 259.23 614.74 260.55
  Q 614.73 261.04 615.10 261.37
  Q 617.07 263.10 617.83 266.67
  Q 620.38 278.56 611.84 284.11
  C 607.65 286.84 602.65 287.27 598.33 284.80
  C 587.39 278.56 590.93 260.88 600.97 255.84
  Z"
/>
<path fill="var(--primary-color)" d="
  M 310.12 245.22
  A 1.87 1.87 0.0 0 0 313.02 245.62
  L 342.06 217.90
  A 1.73 1.72 -21.6 0 0 342.59 216.68
  L 342.73 194.94
  Q 342.74 194.01 343.60 193.63
  L 351.09 190.35
  A 0.71 0.71 0.0 0 1 352.09 191.01
  L 351.69 217.69
  Q 351.68 218.25 352.25 218.25
  L 392.72 218.25
  A 0.93 0.91 -66.6 0 0 393.36 217.99
  L 394.64 216.77
  A 0.62 0.61 -35.3 0 1 395.61 216.93
  Q 396.95 219.53 396.95 222.25
  Q 396.96 264.19 397.52 306.13
  Q 397.53 306.69 398.06 306.89
  C 399.57 307.44 401.23 307.50 402.49 308.43
  Q 409.58 313.67 407.24 322.01
  C 404.61 331.41 391.10 334.88 384.81 326.77
  C 380.36 321.03 380.68 309.87 388.93 307.48
  A 0.75 0.75 0.0 0 0 389.48 306.76
  C 389.67 282.24 389.83 257.76 389.50 233.17
  A 1.13 1.13 0.0 0 0 388.38 232.05
  L 343.07 231.33
  A 0.66 0.66 0.0 0 0 342.72 231.43
  Q 340.90 232.63 340.49 232.98
  Q 328.53 243.46 318.31 255.61
  C 316.31 258.00 315.83 260.83 311.84 260.87
  Q 286.16 261.13 260.50 261.21
  Q 259.30 261.21 258.99 260.39
  A 0.87 0.85 57.7 0 1 259.18 259.50
  L 275.27 242.99
  Q 275.66 242.58 276.23 242.63
  Q 291.37 243.98 306.51 243.54
  Q 309.09 243.47 310.12 245.22
  Z"
/>
<path fill="var(--primary-color)" d="
  M 310.75 229.45
  C 308.97 231.12 307.57 234.06 304.33 234.19
  Q 293.89 234.58 283.49 233.96
  Q 282.33 233.89 283.37 233.38
  L 299.25 225.52
  Q 299.67 225.32 299.87 224.89
  Q 300.44 223.70 301.96 222.47
  Q 317.07 210.27 332.84 199.29
  A 0.53 0.53 0.0 0 1 333.67 199.75
  L 333.26 207.98
  A 1.16 1.16 0.0 0 1 332.84 208.83
  C 324.97 215.49 318.17 222.45 310.75 229.45
  Z"
/>
<path fill="var(--primary-color)" d="
  M 651.00 294.25
  A 1.02 1.02 0.0 0 0 652.02 295.13
  L 674.55 294.94
  A 0.97 0.96 -90.0 0 0 675.51 293.97
  Q 675.29 267.81 676.47 241.20
  Q 676.60 238.34 678.45 236.68
  Q 678.95 236.23 679.22 236.85
  C 680.94 240.79 686.22 242.23 686.19 245.78
  C 686.07 263.56 685.69 281.29 685.75 299.07
  A 0.78 0.78 0.0 0 1 685.40 299.72
  L 678.88 303.98
  A 6.20 6.17 -61.5 0 1 675.48 305.00
  L 651.03 305.00
  Q 650.54 305.00 650.33 305.44
  C 646.18 314.20 634.47 315.86 628.54 308.46
  C 623.02 301.57 624.81 291.95 631.22 286.13
  Q 631.58 285.81 631.58 285.32
  L 631.47 204.71
  A 0.69 0.69 0.0 0 1 632.49 204.11
  L 645.92 211.35
  Q 646.32 211.57 646.32 212.02
  Q 646.14 245.77 645.91 279.50
  Q 645.88 283.62 645.50 287.50
  A 1.16 1.15 -79.1 0 0 646.32 288.72
  Q 650.42 289.96 651.00 294.25
  Z"
/>
<path fill="var(--primary-color)" d="
  M 797.25 298.12
  C 779.49 296.87 764.75 283.44 759.48 266.76
  C 750.61 238.66 774.72 212.61 800.57 207.07
  C 839.74 198.68 868.22 245.77 842.31 276.79
  C 831.89 289.26 813.70 299.27 797.25 298.12
  Z
  M 789.79 277.55
  C 804.07 283.95 826.42 269.45 832.40 255.91
  C 837.25 244.93 831.36 231.81 820.81 227.05
  C 799.99 217.67 761.62 248.21 781.38 271.05
  Q 785.24 275.51 789.79 277.55
  Z"
/>
<path fill="var(--primary-color)" d="
  M 158.02 250.46
  L 137.83 283.56
  A 0.53 0.53 0.0 0 0 138.00 284.29
  L 156.07 295.34
  A 0.53 0.53 0.0 0 0 156.80 295.17
  L 178.74 259.12
  A 0.53 0.53 0.0 0 1 179.47 258.95
  L 192.43 266.87
  A 0.53 0.53 0.0 0 1 192.60 267.60
  L 160.42 320.39
  A 0.53 0.53 0.0 0 1 159.69 320.56
  L 81.10 272.65
  A 0.53 0.53 0.0 0 1 80.93 271.92
  L 113.05 219.26
  A 0.53 0.53 0.0 0 1 113.78 219.09
  L 126.72 227.02
  A 0.53 0.53 0.0 0 1 126.89 227.75
  L 105.02 263.58
  A 0.53 0.53 0.0 0 0 105.19 264.31
  L 123.26 275.31
  A 0.53 0.53 0.0 0 0 123.99 275.14
  L 144.14 242.03
  A 0.53 0.53 0.0 0 1 144.87 241.85
  L 157.85 249.73
  A 0.53 0.53 0.0 0 1 158.02 250.46
  Z"
/>
<path fill="var(--primary-color)" d="
  M 658.62 221.75
  A 0.70 0.70 0.0 0 1 659.97 221.53
  Q 661.18 224.64 664.44 225.34
  A 1.93 1.92 -84.4 0 1 665.96 227.20
  Q 666.11 238.44 665.91 249.80
  Q 665.84 253.77 661.92 254.35
  A 1.35 1.32 -29.9 0 1 660.95 254.10
  Q 658.59 252.35 658.42 248.33
  Q 657.85 235.10 658.62 221.75
  Z"
/>
<ellipse fill="var(--primary-color)" cx="0.00" cy="0.00" transform="translate(340.90,255.87) rotate(100.8)" rx="5.78" ry="5.03"/>
<path fill="var(--primary-color)" d="
  M 360.53 269.46
  C 356.01 266.10 354.15 261.36 356.29 256.00
  Q 358.27 251.06 363.17 250.27
  C 370.53 249.08 376.13 254.85 376.53 262.08
  C 376.75 266.03 373.78 268.81 373.77 272.50
  Q 373.70 293.75 373.41 315.00
  Q 373.36 319.16 371.67 322.81
  Q 371.11 324.02 369.78 323.98
  C 365.28 323.86 363.41 321.38 363.36 316.90
  Q 363.07 289.18 363.26 275.49
  Q 363.32 271.54 360.53 269.46
  Z"
/>
<path fill="var(--primary-color)" d="
  M 698.48 364.15
  A 0.84 0.84 0.0 0 0 697.28 363.98
  C 692.73 367.52 688.74 370.01 682.91 368.63
  C 669.08 365.36 668.14 345.01 680.95 339.35
  Q 681.41 339.15 681.45 338.65
  Q 682.43 327.68 681.77 316.76
  C 681.72 315.93 682.21 314.46 682.96 313.80
  Q 690.49 307.12 696.94 299.40
  Q 697.27 299.01 697.28 298.49
  Q 697.61 281.41 697.76 264.40
  C 697.78 261.76 697.11 258.82 698.17 255.55
  A 0.67 0.67 0.0 0 1 699.39 255.44
  Q 702.15 260.56 706.75 264.19
  A 1.33 1.33 0.0 0 1 707.25 265.23
  L 707.25 301.93
  A 1.81 1.79 -24.0 0 1 706.77 303.15
  L 693.43 317.29
  A 0.80 0.79 67.0 0 0 693.21 317.84
  L 693.00 341.89
  A 0.85 0.84 -75.7 0 0 693.43 342.63
  Q 697.30 344.86 698.25 349.18
  Q 698.38 349.75 698.96 349.75
  L 723.48 349.75
  Q 724.05 349.75 724.47 349.35
  L 740.33 334.39
  Q 740.72 334.03 740.72 333.50
  Q 740.90 321.18 741.26 308.94
  Q 741.26 308.75 741.34 308.59
  Q 741.46 308.32 741.53 308.27
  Q 742.11 307.84 742.40 308.51
  Q 745.06 314.58 748.17 320.49
  C 751.02 325.89 752.70 331.03 754.62 336.58
  Q 754.80 337.08 754.37 337.39
  C 752.68 338.62 750.85 339.75 749.39 341.11
  Q 730.82 358.36 723.20 364.70
  C 720.23 367.18 705.54 365.87 701.32 365.64
  Q 699.48 365.55 698.48 364.15
  Z"
/>
<path fill="var(--primary-color)" d="
  M 288.43 357.87
  C 275.99 352.49 275.05 335.24 287.83 330.21
  A 1.85 1.84 79.3 0 0 289.00 328.49
  L 289.00 303.06
  A 1.53 1.50 25.1 0 0 288.63 302.07
  C 280.55 292.72 287.59 280.43 297.63 277.94
  C 307.69 275.46 316.43 286.95 315.02 296.04
  C 313.84 303.69 306.44 308.29 298.70 306.99
  Q 298.04 306.88 298.01 307.55
  L 297.21 328.84
  A 1.43 1.42 -83.3 0 0 298.35 330.29
  Q 304.11 331.50 306.43 336.86
  A 0.80 0.80 0.0 0 0 307.18 337.35
  L 327.34 336.98
  A 2.21 2.19 9.2 0 0 329.37 335.53
  C 331.94 328.43 339.79 325.57 346.52 328.43
  C 358.60 333.57 359.23 350.74 345.99 354.98
  Q 336.85 357.91 329.96 349.04
  A 0.90 0.88 -19.5 0 0 329.21 348.69
  Q 319.79 348.99 310.27 348.43
  Q 305.39 348.14 309.21 351.18
  C 311.97 353.36 314.48 356.35 316.76 358.46
  Q 333.65 374.15 350.16 390.25
  Q 350.53 390.61 351.05 390.52
  C 369.75 387.26 373.49 418.32 354.11 415.63
  Q 344.17 414.25 343.57 403.21
  Q 343.55 402.72 343.20 402.36
  C 340.01 399.08 337.03 395.03 334.10 392.05
  Q 316.69 374.31 299.89 356.74
  A 1.20 1.20 0.0 0 0 297.82 357.51
  Q 297.15 370.10 298.10 382.71
  Q 298.14 383.23 298.60 383.46
  C 307.64 387.97 312.16 401.84 301.28 407.50
  C 292.85 411.88 287.33 407.90 281.84 401.71
  A 0.87 0.87 0.0 0 0 281.19 401.42
  L 265.41 401.72
  Q 264.97 401.72 264.74 401.36
  C 259.96 394.07 255.26 391.27 255.19 381.13
  Q 254.91 334.53 255.00 302.75
  C 255.03 292.57 246.01 287.82 236.52 289.11
  A 1.12 1.12 0.0 0 1 235.42 287.42
  Q 241.23 277.89 248.78 269.74
  A 0.73 0.72 44.8 0 1 249.85 269.74
  L 260.06 280.83
  Q 260.48 281.28 261.09 281.31
  L 281.40 282.32
  Q 282.17 282.36 282.17 283.14
  L 282.17 286.71
  A 0.96 0.96 0.0 0 1 281.24 287.67
  L 264.37 288.13
  A 0.77 0.77 0.0 0 0 263.62 288.90
  C 263.73 319.88 263.80 350.81 263.47 381.80
  C 263.42 386.78 264.73 389.85 268.03 393.17
  Q 268.45 393.59 269.05 393.54
  L 279.78 392.70
  A 1.17 1.17 0.0 0 0 280.65 392.18
  C 283.05 388.49 283.48 384.98 288.61 383.51
  A 0.95 0.73 -10.1 0 0 289.30 382.75
  L 288.98 358.70
  Q 288.97 358.11 288.43 357.87
  Z"
/>
<path fill="var(--primary-color)" d="
  M 719.68 277.90
  C 721.30 282.49 724.40 283.85 727.23 287.56
  A 1.56 1.53 -64.0 0 1 727.54 288.49
  Q 727.37 315.19 727.76 321.99
  Q 728.06 327.24 724.79 330.41
  A 1.20 1.19 -59.5 0 1 723.64 330.71
  Q 717.47 329.07 717.57 321.74
  Q 717.85 302.63 717.72 283.49
  Q 717.70 280.74 718.35 277.97
  A 0.69 0.69 0.0 0 1 719.68 277.90
  Z"
/>
<path fill="var(--primary-color)" d="
  M 207.18 386.98
  L 203.14 394.32
  A 0.81 0.80 12.2 0 1 202.49 394.73
  L 187.35 395.80
  Q 186.71 395.85 186.49 395.25
  Q 185.54 392.68 185.93 391.23
  C 194.46 358.98 207.56 327.28 226.87 300.63
  Q 227.15 300.24 227.63 300.29
  C 235.38 301.10 245.37 301.59 245.48 310.25
  Q 245.69 326.64 244.33 365.39
  Q 244.32 365.88 244.07 366.31
  C 243.20 367.81 243.29 368.72 244.33 370.19
  C 248.80 376.52 247.56 387.79 238.35 389.20
  A 0.83 0.82 71.8 0 0 237.75 390.40
  Q 240.92 396.31 245.97 401.04
  Q 258.48 412.75 270.71 424.78
  A 1.02 0.99 -27.8 0 0 271.60 425.04
  C 273.44 424.69 275.32 424.04 276.96 423.95
  C 295.39 422.95 297.29 456.14 276.02 453.47
  Q 270.15 452.73 265.44 448.60
  Q 265.02 448.23 264.46 448.20
  L 222.19 445.50
  A 1.59 1.58 1.9 0 0 220.50 447.08
  L 220.50 456.97
  Q 220.50 457.60 221.13 457.53
  C 238.22 455.47 257.93 454.64 275.76 455.57
  Q 283.68 455.99 293.09 458.00
  Q 310.27 461.66 327.35 465.84
  Q 327.83 465.95 327.77 466.45
  C 326.89 473.82 327.04 482.03 330.41 488.79
  C 332.73 493.44 337.36 494.48 342.19 494.62
  Q 364.20 495.28 387.12 495.82
  A 0.48 0.48 0.0 0 1 387.58 496.38
  L 386.73 501.92
  A 0.98 0.98 0.0 0 0 387.71 503.04
  Q 407.71 502.92 428.00 504.52
  C 430.53 504.72 431.38 504.60 433.25 502.74
  C 439.40 496.64 451.42 493.08 459.14 490.62
  C 467.83 487.85 474.12 489.88 479.79 480.58
  A 0.43 0.42 -81.7 0 0 479.32 479.94
  L 437.93 491.07
  Q 436.83 491.36 436.09 490.50
  Q 423.38 475.73 409.33 461.17
  Q 406.71 458.46 404.96 457.06
  A 0.90 0.88 49.4 0 0 403.98 456.97
  Q 376.30 472.27 347.19 484.49
  C 344.70 485.53 341.66 485.85 338.95 486.49
  A 1.43 1.43 0.0 0 1 337.19 485.18
  L 336.36 470.74
  Q 336.31 469.98 337.03 470.22
  L 339.18 470.93
  Q 339.69 471.10 340.19 470.89
  C 343.63 469.45 347.12 467.48 350.39 466.23
  C 372.77 457.67 394.84 448.15 418.50 442.22
  Q 432.28 438.77 450.25 440.35
  Q 450.79 440.40 451.27 440.15
  L 485.62 422.57
  Q 486.14 422.30 486.72 422.46
  L 559.58 443.06
  Q 560.42 443.30 560.37 442.43
  Q 559.38 424.30 559.99 406.14
  A 1.07 1.06 7.5 0 1 561.30 405.14
  Q 562.47 405.42 563.30 403.89
  Q 570.69 390.18 578.74 376.98
  A 0.67 0.67 0.0 0 1 579.92 377.05
  L 592.67 404.42
  Q 592.83 404.75 593.20 404.75
  L 596.97 404.75
  A 1.54 1.53 -0.0 0 1 598.51 406.28
  L 598.48 450.32
  A 0.46 0.46 0.0 0 0 598.78 450.75
  Q 614.74 456.93 630.64 463.40
  C 631.64 463.81 632.94 463.67 634.10 464.31
  Q 634.60 464.59 634.63 465.16
  L 634.81 469.16
  A 1.64 1.64 0.0 0 0 636.15 470.70
  L 643.20 472.03
  A 0.69 0.69 0.0 0 0 644.00 471.50
  L 644.34 469.88
  Q 644.45 469.37 644.97 469.39
  C 673.85 470.28 704.50 469.92 733.52 472.21
  Q 741.58 472.85 746.83 467.05
  Q 754.44 458.64 761.23 449.51
  Q 761.51 449.15 761.51 448.69
  L 761.58 430.57
  A 0.47 0.47 0.0 0 0 760.79 430.22
  C 754.40 436.10 747.56 442.08 739.65 445.81
  Q 739.19 446.03 739.21 446.54
  C 739.59 455.97 732.33 461.76 723.55 459.51
  C 714.13 457.09 711.71 443.53 719.99 438.17
  C 724.87 435.02 730.56 435.47 734.83 439.52
  A 1.78 1.77 45.5 0 0 737.24 439.55
  Q 748.24 429.58 757.98 417.97
  C 764.06 410.70 764.96 403.74 774.50 398.76
  A 0.87 0.87 0.0 0 1 775.75 399.36
  C 782.54 434.20 783.27 470.05 779.79 505.32
  Q 778.77 515.68 776.92 525.08
  Q 764.28 589.35 725.52 642.63
  A 1.04 1.03 -52.7 0 1 724.04 642.84
  C 707.53 629.80 689.79 623.09 668.07 622.72
  Q 650.69 622.43 633.31 622.45
  Q 453.53 622.65 273.75 622.44
  C 258.92 622.43 245.96 630.67 234.92 639.71
  Q 234.49 640.07 234.10 639.66
  Q 232.94 638.43 231.43 636.32
  C 210.17 606.68 191.91 571.56 183.96 536.12
  C 175.19 496.94 173.91 455.31 179.45 414.60
  C 180.28 408.54 183.88 405.33 190.01 405.31
  C 202.15 405.28 209.83 405.63 219.52 412.66
  C 230.58 420.68 241.39 424.06 249.99 433.97
  A 2.27 2.26 72.0 0 0 251.50 434.74
  L 262.31 435.66
  A 1.63 1.62 -71.5 0 0 263.84 434.89
  C 265.53 432.19 264.15 429.82 262.15 427.52
  C 252.32 416.19 242.62 407.27 232.87 397.90
  A 1.23 1.22 -68.1 0 1 232.50 397.02
  L 232.50 390.02
  Q 232.50 389.51 232.04 389.29
  Q 220.23 383.75 225.45 371.45
  Q 227.09 367.58 231.61 366.52
  Q 232.26 366.37 232.27 365.70
  L 232.58 323.77
  A 0.89 0.86 23.3 0 0 232.31 323.12
  L 227.29 318.14
  A 0.85 0.84 -32.6 0 0 226.40 317.95
  Q 221.95 319.57 221.76 324.00
  C 221.22 336.85 222.04 350.21 220.46 362.94
  C 220.30 364.24 220.01 364.76 218.77 365.13
  Q 218.22 365.30 218.18 365.87
  Q 217.24 379.39 219.25 392.75
  A 1.34 1.33 85.5 0 1 217.94 394.29
  C 213.51 394.34 210.47 390.42 208.56 386.98
  A 0.79 0.78 44.8 0 0 207.18 386.98
  Z
  M 204.9106 425.3014
  A 0.39 0.39 0.0 0 0 204.5296 424.9026
  L 192.0728 424.6199
  A 0.39 0.39 0.0 0 0 191.6740 425.0010
  L 191.4694 434.0186
  A 0.39 0.39 0.0 0 0 191.8504 434.4174
  L 204.3072 434.7001
  A 0.39 0.39 0.0 0 0 204.7060 434.3190
  L 204.9106 425.3014
  Z
  M 511.06 443.73
  C 519.46 454.54 528.82 465.34 538.88 474.65
  A 0.73 0.72 48.4 0 0 539.80 474.71
  L 552.45 465.60
  Q 552.95 465.24 552.47 464.86
  C 546.43 460.09 539.07 453.05 531.70 450.66
  Q 521.39 447.33 511.28 443.44
  A 0.19 0.19 0.0 0 0 511.06 443.73
  Z
  M 457.50 455.84
  Q 455.76 466.16 452.72 475.56
  C 452.43 476.47 452.45 477.50 452.50 478.38
  Q 452.57 479.50 453.52 478.89
  L 479.27 462.28
  Q 479.71 462.00 479.74 461.48
  L 480.86 444.64
  A 0.34 0.34 0.0 0 0 480.35 444.33
  Q 469.55 450.81 457.85 455.42
  Q 457.56 455.53 457.50 455.84
  Z
  M 204.4934 447.0666
  A 0.58 0.58 0.0 0 0 203.9104 446.4896
  L 192.2705 446.5506
  A 0.58 0.58 0.0 0 0 191.6936 447.1336
  L 191.7466 457.2534
  A 0.58 0.58 0.0 0 0 192.3296 457.8304
  L 203.9695 457.7694
  A 0.58 0.58 0.0 0 0 204.5464 457.1864
  L 204.4934 447.0666
  Z
  M 760.02 509.52
  A 0.46 0.46 0.0 0 0 760.47 509.97
  L 768.74 510.01
  A 0.46 0.46 0.0 0 0 769.21 509.54
  L 768.91 463.21
  A 0.46 0.46 0.0 0 0 768.16 462.86
  L 759.88 469.62
  A 0.46 0.46 0.0 0 0 759.71 469.98
  L 760.02 509.52
  Z
  M 232.3015 470.3137
  A 0.26 0.26 0.0 0 0 232.0470 470.0483
  L 220.8494 469.8138
  A 0.26 0.26 0.0 0 0 220.5841 470.0682
  L 220.3985 478.9263
  A 0.26 0.26 0.0 0 0 220.6530 479.1917
  L 231.8506 479.4262
  A 0.26 0.26 0.0 0 0 232.1159 479.1718
  L 232.3015 470.3137
  Z
  M 204.6629 470.9285
  A 0.73 0.73 0.0 0 0 203.9316 470.1998
  L 192.2317 470.2202
  A 0.73 0.73 0.0 0 0 191.5029 470.9515
  L 191.5171 479.0515
  A 0.73 0.73 0.0 0 0 192.2484 479.7802
  L 203.9483 479.7598
  A 0.73 0.73 0.0 0 0 204.6771 479.0285
  L 204.6629 470.9285
  Z
  M 518.4430 482.9262
  A 0.88 0.88 0.0 0 0 517.5615 482.0478
  L 503.5215 482.0723
  A 0.88 0.88 0.0 0 0 502.6431 482.9538
  L 502.6570 490.9138
  A 0.88 0.88 0.0 0 0 503.5385 491.7922
  L 517.5785 491.7677
  A 0.88 0.88 0.0 0 0 518.4569 490.8862
  L 518.4430 482.9262
  Z
  M 231.8832 491.6201
  A 0.26 0.26 0.0 0 0 231.6223 491.3610
  L 220.7424 491.3990
  A 0.26 0.26 0.0 0 0 220.4833 491.6599
  L 220.5168 501.2599
  A 0.26 0.26 0.0 0 0 220.7777 501.5190
  L 231.6576 501.4810
  A 0.26 0.26 0.0 0 0 231.9167 501.2201
  L 231.8832 491.6201
  Z
  M 204.7332 492.4319
  A 0.73 0.73 0.0 0 0 204.0147 491.6905
  L 192.5762 491.5108
  A 0.73 0.73 0.0 0 0 191.8348 492.2293
  L 191.6868 501.6481
  A 0.73 0.73 0.0 0 0 192.4053 502.3895
  L 203.8438 502.5692
  A 0.73 0.73 0.0 0 0 204.5852 501.8507
  L 204.7332 492.4319
  Z
  M 683.27 495.20
  A 0.43 0.43 0.0 0 0 682.84 494.77
  L 667.92 494.77
  A 0.43 0.43 0.0 0 0 667.49 495.20
  L 667.49 506.32
  A 0.43 0.43 0.0 0 0 667.92 506.75
  L 682.84 506.75
  A 0.43 0.43 0.0 0 0 683.27 506.32
  L 683.27 495.20
  Z
  M 541.9151 498.5288
  A 0.87 0.87 0.0 0 0 541.0286 497.6757
  L 530.0506 497.8865
  A 0.87 0.87 0.0 0 0 529.1975 498.7730
  L 529.3849 508.5312
  A 0.87 0.87 0.0 0 0 530.2714 509.3843
  L 541.2494 509.1735
  A 0.87 0.87 0.0 0 0 542.1025 508.2870
  L 541.9151 498.5288
  Z
  M 565.4810 498.5400
  A 0.61 0.61 0.0 0 0 564.8699 497.9311
  L 554.6499 497.9489
  A 0.61 0.61 0.0 0 0 554.0410 498.5600
  L 554.0590 508.9000
  A 0.61 0.61 0.0 0 0 554.6701 509.5089
  L 564.8901 509.4911
  A 0.61 0.61 0.0 0 0 565.4990 508.8800
  L 565.4810 498.5400
  Z
  M 608.9559 498.9793
  A 1.14 1.14 0.0 0 0 607.8199 497.8354
  L 599.0399 497.8047
  A 1.14 1.14 0.0 0 0 597.8960 498.9407
  L 597.8641 508.0607
  A 1.14 1.14 0.0 0 0 599.0001 509.2046
  L 607.7801 509.2353
  A 1.14 1.14 0.0 0 0 608.9240 508.0993
  L 608.9559 498.9793
  Z
  M 587.5972 499.0301
  A 0.96 0.96 0.0 0 0 586.6406 498.0668
  L 577.0607 498.0333
  A 0.96 0.96 0.0 0 0 576.0973 498.9900
  L 576.0628 508.8899
  A 0.96 0.96 0.0 0 0 577.0194 509.8532
  L 586.5993 509.8867
  A 0.96 0.96 0.0 0 0 587.5627 508.9300
  L 587.5972 499.0301
  Z
  M 631.9646 498.6900
  A 0.73 0.73 0.0 0 0 631.2270 497.9677
  L 621.1675 498.0730
  A 0.73 0.73 0.0 0 0 620.4452 498.8106
  L 620.5554 509.3300
  A 0.73 0.73 0.0 0 0 621.2930 510.0523
  L 631.3525 509.9470
  A 0.73 0.73 0.0 0 0 632.0748 509.2094
  L 631.9646 498.6900
  Z
  M 747.0629 498.9565
  A 0.71 0.71 0.0 0 0 746.3492 498.2502
  L 734.9294 498.3100
  A 0.71 0.71 0.0 0 0 734.2231 499.0237
  L 734.2771 509.3235
  A 0.71 0.71 0.0 0 0 734.9908 510.0298
  L 746.4106 509.9700
  A 0.71 0.71 0.0 0 0 747.1169 509.2563
  L 747.0629 498.9565
  Z
  M 721.5171 499.2445
  A 0.64 0.64 0.0 0 0 720.8704 498.6112
  L 709.5910 498.7294
  A 0.64 0.64 0.0 0 0 708.9578 499.3760
  L 709.0629 509.4155
  A 0.64 0.64 0.0 0 0 709.7096 510.0488
  L 720.9890 509.9306
  A 0.64 0.64 0.0 0 0 721.6222 509.2840
  L 721.5171 499.2445
  Z
  M 518.5571 499.7948
  A 0.74 0.74 0.0 0 0 517.8262 499.0458
  L 503.8472 498.8750
  A 0.74 0.74 0.0 0 0 503.0982 499.6059
  L 502.9829 509.0452
  A 0.74 0.74 0.0 0 0 503.7138 509.7942
  L 517.6928 509.9650
  A 0.74 0.74 0.0 0 0 518.4418 509.2341
  L 518.5571 499.7948
  Z
  M 483.0354 505.6378
  A 0.71 0.71 0.0 0 0 482.3354 504.9180
  L 468.3768 504.7231
  A 0.71 0.71 0.0 0 0 467.6569 505.4231
  L 467.5246 514.9022
  A 0.71 0.71 0.0 0 0 468.2246 515.6220
  L 482.1832 515.8169
  A 0.71 0.71 0.0 0 0 482.9031 515.1169
  L 483.0354 505.6378
  Z
  M 300.9570 510.3096
  A 1.13 1.13 0.0 0 0 299.8152 509.1915
  L 288.5758 509.3092
  A 1.13 1.13 0.0 0 0 287.4577 510.4510
  L 287.5630 520.5104
  A 1.13 1.13 0.0 0 0 288.7048 521.6285
  L 299.9442 521.5108
  A 1.13 1.13 0.0 0 0 301.0623 520.3690
  L 300.9570 510.3096
  Z
  M 376.77 521.06
  L 376.79 511.52
  A 0.97 0.97 0.0 0 0 375.82 510.55
  L 365.22 510.53
  A 1.99 1.66 0.1 0 0 363.23 512.19
  L 363.21 520.35
  A 1.99 1.66 0.1 0 0 365.20 522.01
  L 375.80 522.03
  A 0.97 0.97 0.0 0 0 376.77 521.06
  Z
  M 344.0119 511.7587
  A 0.97 0.97 0.0 0 0 343.0402 510.7904
  L 331.9802 510.8097
  A 0.97 0.97 0.0 0 0 331.0119 511.7814
  L 331.0281 521.0413
  A 0.97 0.97 0.0 0 0 331.9998 522.0096
  L 343.0598 521.9903
  A 0.97 0.97 0.0 0 0 344.0281 521.0186
  L 344.0119 511.7587
  Z
  M 646.84 526.24
  L 660.86 526.36
  A 0.84 0.84 0.0 0 0 661.71 525.53
  L 661.74 521.50
  A 9.19 6.98 -89.5 0 0 654.84 512.25
  L 653.10 512.23
  A 9.19 6.98 -89.5 0 0 646.04 521.36
  L 646.01 525.39
  A 0.84 0.84 0.0 0 0 646.84 526.24
  Z
  M 191.71 515.14
  L 191.77 524.14
  A 0.85 0.85 0.0 0 0 192.63 524.98
  L 202.81 524.91
  A 2.64 2.39 89.6 0 0 205.18 522.25
  L 205.14 516.83
  A 2.64 2.39 89.6 0 0 202.73 514.21
  L 192.55 514.28
  A 0.85 0.85 0.0 0 0 191.71 515.14
  Z
  M 232.1221 514.8798
  A 0.61 0.61 0.0 0 0 231.5110 514.2708
  L 221.0111 514.2892
  A 0.61 0.61 0.0 0 0 220.4021 514.9002
  L 220.4179 523.9402
  A 0.61 0.61 0.0 0 0 221.0290 524.5492
  L 231.5289 524.5308
  A 0.61 0.61 0.0 0 0 232.1379 523.9198
  L 232.1221 514.8798
  Z
  M 699.1741 517.9521
  A 0.51 0.51 0.0 0 0 698.6605 517.4457
  L 685.9209 517.5346
  A 0.51 0.51 0.0 0 0 685.4144 518.0482
  L 685.4859 528.2879
  A 0.51 0.51 0.0 0 0 685.9995 528.7943
  L 698.7391 528.7054
  A 0.51 0.51 0.0 0 0 699.2456 528.1918
  L 699.1741 517.9521
  Z
  M 518.4622 518.4196
  A 0.73 0.73 0.0 0 0 517.7284 517.6934
  L 503.7286 517.7667
  A 0.73 0.73 0.0 0 0 503.0024 518.5005
  L 503.0578 529.0804
  A 0.73 0.73 0.0 0 0 503.7916 529.8066
  L 517.7914 529.7333
  A 0.73 0.73 0.0 0 0 518.5176 528.9995
  L 518.4622 518.4196
  Z
  M 632.2117 518.6055
  A 0.54 0.54 0.0 0 0 631.6652 518.0722
  L 620.4860 518.2087
  A 0.54 0.54 0.0 0 0 619.9527 518.7553
  L 620.0883 529.8545
  A 0.54 0.54 0.0 0 0 620.6348 530.3878
  L 631.8140 530.2513
  A 0.54 0.54 0.0 0 0 632.3473 529.7047
  L 632.2117 518.6055
  Z
  M 747.14 518.87
  A 0.58 0.58 0.0 0 0 746.57 518.33
  L 734.84 518.08
  A 0.58 0.58 0.0 0 0 734.25 518.66
  L 734.25 528.92
  A 0.58 0.58 0.0 0 0 734.83 529.50
  L 747.24 529.50
  A 0.58 0.58 0.0 0 0 747.82 528.88
  L 747.14 518.87
  Z
  M 541.9558 518.9824
  A 0.63 0.63 0.0 0 0 541.3203 518.3579
  L 529.3407 518.4625
  A 0.63 0.63 0.0 0 0 528.7163 519.0980
  L 528.8042 529.1776
  A 0.63 0.63 0.0 0 0 529.4397 529.8021
  L 541.4193 529.6975
  A 0.63 0.63 0.0 0 0 542.0437 529.0620
  L 541.9558 518.9824
  Z
  M 553.62 529.61
  A 0.65 0.65 0.0 0 0 554.27 530.28
  L 564.86 530.31
  A 0.65 0.65 0.0 0 0 565.51 529.64
  L 565.15 518.80
  A 0.65 0.65 0.0 0 0 564.49 518.18
  L 554.68 518.42
  A 0.65 0.65 0.0 0 0 554.05 519.04
  L 553.62 529.61
  Z
  M 588.0404 519.4497
  A 0.93 0.93 0.0 0 0 587.1186 518.5117
  L 577.6190 518.4288
  A 0.93 0.93 0.0 0 0 576.6809 519.3506
  L 576.5996 528.6703
  A 0.93 0.93 0.0 0 0 577.5214 529.6083
  L 587.0210 529.6912
  A 0.93 0.93 0.0 0 0 587.9591 528.7694
  L 588.0404 519.4497
  Z
  M 608.4806 518.6910
  A 0.29 0.29 0.0 0 0 608.1896 518.4020
  L 597.8696 518.4380
  A 0.29 0.29 0.0 0 0 597.5807 518.7291
  L 597.6194 529.8290
  A 0.29 0.29 0.0 0 0 597.9104 530.1180
  L 608.2304 530.0820
  A 0.29 0.29 0.0 0 0 608.5193 529.7909
  L 608.4806 518.6910
  Z
  M 721.6231 519.1472
  A 0.87 0.87 0.0 0 0 720.7500 518.2802
  L 709.3901 518.3199
  A 0.87 0.87 0.0 0 0 708.5231 519.1929
  L 708.5569 528.8728
  A 0.87 0.87 0.0 0 0 709.4300 529.7398
  L 720.7899 529.7001
  A 0.87 0.87 0.0 0 0 721.6569 528.8271
  L 721.6231 519.1472
  Z
  M 468.24 531.93
  L 481.96 531.91
  A 1.03 1.03 0.0 0 0 482.99 530.88
  L 482.98 524.58
  A 2.81 1.98 89.9 0 0 480.99 521.77
  L 469.17 521.79
  A 2.81 1.98 89.9 0 0 467.20 524.60
  L 467.21 530.90
  A 1.03 1.03 0.0 0 0 468.24 531.93
  Z
  M 395.68 545.90
  A 1.00 1.00 0.0 0 0 396.61 547.29
  L 411.51 547.13
  A 1.00 1.00 0.0 0 0 412.42 545.72
  L 404.78 528.83
  A 1.00 1.00 0.0 0 0 402.95 528.85
  L 395.68 545.90
  Z
  M 436.24 546.49
  A 0.61 0.61 0.0 0 0 436.82 547.30
  L 450.79 547.34
  A 0.61 0.61 0.0 0 0 451.35 546.48
  L 443.66 529.03
  A 0.61 0.61 0.0 0 0 442.52 529.06
  L 436.24 546.49
  Z
  M 376.8994 531.2044
  A 0.65 0.65 0.0 0 0 376.2666 530.5376
  L 364.3907 530.2266
  A 0.65 0.65 0.0 0 0 363.7239 530.8593
  L 363.4406 541.6756
  A 0.65 0.65 0.0 0 0 364.0734 542.3424
  L 375.9493 542.6534
  A 0.65 0.65 0.0 0 0 376.6161 542.0207
  L 376.8994 531.2044
  Z
  M 343.7936 531.5576
  A 0.51 0.51 0.0 0 0 343.2889 531.0423
  L 331.4496 530.9183
  A 0.51 0.51 0.0 0 0 330.9343 531.4229
  L 330.8264 541.7224
  A 0.51 0.51 0.0 0 0 331.3311 542.2377
  L 343.1704 542.3617
  A 0.51 0.51 0.0 0 0 343.6857 541.8571
  L 343.7936 531.5576
  Z
  M 301.2351 532.1517
  A 0.90 0.90 0.0 0 0 300.3288 531.2580
  L 288.2691 531.3422
  A 0.90 0.90 0.0 0 0 287.3754 532.2485
  L 287.4449 542.2083
  A 0.90 0.90 0.0 0 0 288.3512 543.1020
  L 300.4109 543.0178
  A 0.90 0.90 0.0 0 0 301.3046 542.1115
  L 301.2351 532.1517
  Z
  M 220.23 536.46
  L 220.21 545.84
  A 0.95 0.95 0.0 0 0 221.16 546.79
  L 230.32 546.81
  A 2.13 1.93 0.1 0 0 232.45 544.88
  L 232.47 537.46
  A 2.13 1.93 0.1 0 0 230.34 535.53
  L 221.18 535.51
  A 0.95 0.95 0.0 0 0 220.23 536.46
  Z
  M 203.72 535.97
  L 193.72 535.95
  A 1.10 1.10 0.0 0 0 192.62 537.05
  L 192.60 545.45
  A 2.48 2.32 0.1 0 0 195.08 547.77
  L 202.32 547.79
  A 2.48 2.32 0.1 0 0 204.80 545.47
  L 204.82 537.07
  A 1.10 1.10 0.0 0 0 203.72 535.97
  Z
  M 518.50 539.14
  A 0.71 0.71 0.0 0 0 517.76 538.43
  L 503.73 539.07
  A 0.71 0.71 0.0 0 0 503.05 539.77
  L 502.89 549.90
  A 0.71 0.71 0.0 0 0 503.61 550.63
  L 517.79 550.53
  A 0.71 0.71 0.0 0 0 518.50 549.82
  L 518.50 539.14
  Z
  M 542.38 549.57
  L 542.19 539.73
  A 1.31 1.31 0.0 0 0 540.86 538.45
  L 532.17 538.62
  A 3.30 0.97 -1.1 0 0 528.89 539.65
  L 529.09 550.17
  A 3.30 0.97 -1.1 0 0 532.41 551.07
  L 541.10 550.91
  A 1.31 1.31 0.0 0 0 542.38 549.57
  Z
  M 565.3513 539.3094
  A 0.63 0.63 0.0 0 0 564.7191 538.6816
  L 554.1392 538.7185
  A 0.63 0.63 0.0 0 0 553.5114 539.3507
  L 553.5487 550.0506
  A 0.63 0.63 0.0 0 0 554.1809 550.6784
  L 564.7608 550.6415
  A 0.63 0.63 0.0 0 0 565.3886 550.0093
  L 565.3513 539.3094
  Z
  M 587.9614 539.8301
  A 1.12 1.12 0.0 0 0 586.8394 538.7121
  L 577.7394 538.7280
  A 1.12 1.12 0.0 0 0 576.6214 539.8499
  L 576.6386 549.7099
  A 1.12 1.12 0.0 0 0 577.7606 550.8279
  L 586.8606 550.8120
  A 1.12 1.12 0.0 0 0 587.9786 549.6901
  L 587.9614 539.8301
  Z
  M 608.7476 539.5699
  A 0.88 0.88 0.0 0 0 607.8722 538.6853
  L 598.2323 538.6348
  A 0.88 0.88 0.0 0 0 597.3477 539.5102
  L 597.2924 550.0701
  A 0.88 0.88 0.0 0 0 598.1678 550.9547
  L 607.8077 551.0052
  A 0.88 0.88 0.0 0 0 608.6923 550.1298
  L 608.7476 539.5699
  Z
  M 632.0525 539.3669
  A 0.89 0.89 0.0 0 0 631.1532 538.4863
  L 620.8338 538.5944
  A 0.89 0.89 0.0 0 0 619.9532 539.4937
  L 620.0675 550.4131
  A 0.89 0.89 0.0 0 0 620.9668 551.2937
  L 631.2862 551.1856
  A 0.89 0.89 0.0 0 0 632.1668 550.2863
  L 632.0525 539.3669
  Z
  M 699.1345 539.1653
  A 0.53 0.53 0.0 0 0 698.5963 538.6437
  L 686.2378 538.8378
  A 0.53 0.53 0.0 0 0 685.7162 539.3761
  L 685.8855 550.1547
  A 0.53 0.53 0.0 0 0 686.4237 550.6763
  L 698.7822 550.4822
  A 0.53 0.53 0.0 0 0 699.3038 549.9439
  L 699.1345 539.1653
  Z
  M 482.9117 539.7311
  A 0.37 0.37 0.0 0 0 482.5475 539.3554
  L 467.9493 539.1260
  A 0.37 0.37 0.0 0 0 467.5736 539.4902
  L 467.4083 550.0089
  A 0.37 0.37 0.0 0 0 467.7725 550.3846
  L 482.3707 550.6140
  A 0.37 0.37 0.0 0 0 482.7464 550.2498
  L 482.9117 539.7311
  Z
  M 747.3410 538.9400
  A 0.26 0.26 0.0 0 0 747.0778 538.6832
  L 734.4388 538.8376
  A 0.26 0.26 0.0 0 0 734.1820 539.1008
  L 734.3190 550.3200
  A 0.26 0.26 0.0 0 0 734.5822 550.5768
  L 747.2212 550.4224
  A 0.26 0.26 0.0 0 0 747.4780 550.1592
  L 747.3410 538.9400
  Z
  M 721.2389 539.7509
  A 0.58 0.58 0.0 0 0 720.6599 539.1699
  L 709.2999 539.1501
  A 0.58 0.58 0.0 0 0 708.7189 539.7291
  L 708.7011 549.9491
  A 0.58 0.58 0.0 0 0 709.2801 550.5301
  L 720.6401 550.5499
  A 0.58 0.58 0.0 0 0 721.2211 549.9709
  L 721.2389 539.7509
  Z
  M 376.7576 552.0939
  A 0.83 0.83 0.0 0 0 375.9319 551.2596
  L 364.6521 551.2006
  A 0.83 0.83 0.0 0 0 363.8177 552.0262
  L 363.7624 562.5861
  A 0.83 0.83 0.0 0 0 364.5881 563.4204
  L 375.8679 563.4794
  A 0.83 0.83 0.0 0 0 376.7023 562.6538
  L 376.7576 552.0939
  Z
  M 342.36 551.55
  L 332.62 551.38
  A 1.54 1.54 0.0 0 0 331.06 552.89
  L 330.92 560.39
  A 5.51 3.76 1.0 0 0 336.37 564.24
  L 338.17 564.27
  A 5.51 3.76 1.0 0 0 343.74 560.61
  L 343.87 553.11
  A 1.54 1.54 0.0 0 0 342.36 551.55
  Z
  M 287.61 564.65
  A 0.65 0.65 0.0 0 0 288.27 565.29
  L 300.85 565.02
  A 0.65 0.65 0.0 0 0 301.49 564.34
  L 300.98 554.49
  A 0.65 0.65 0.0 0 0 300.36 553.87
  L 288.14 553.27
  A 0.65 0.65 0.0 0 0 287.46 553.93
  L 287.61 564.65
  Z
  M 482.6438 561.0526
  A 0.53 0.53 0.0 0 0 482.1175 560.5189
  L 468.1379 560.4213
  A 0.53 0.53 0.0 0 0 467.6042 560.9476
  L 467.5362 570.6874
  A 0.53 0.53 0.0 0 0 468.0625 571.2211
  L 482.0421 571.3187
  A 0.53 0.53 0.0 0 0 482.5758 570.7924
  L 482.6438 561.0526
  Z
  M 518.1818 561.4167
  A 0.78 0.78 0.0 0 0 517.4005 560.6380
  L 503.6805 560.6620
  A 0.78 0.78 0.0 0 0 502.9019 561.4433
  L 502.9182 570.7833
  A 0.78 0.78 0.0 0 0 503.6995 571.5620
  L 517.4195 571.5380
  A 0.78 0.78 0.0 0 0 518.1981 570.7567
  L 518.1818 561.4167
  Z
  M 542.04 570.24
  L 542.04 561.82
  A 1.26 1.26 0.0 0 0 540.78 560.56
  L 533.23 560.56
  A 4.73 1.76 0.0 0 0 528.50 562.32
  L 528.50 569.74
  A 4.73 1.76 0.0 0 0 533.23 571.50
  L 540.78 571.50
  A 1.26 1.26 0.0 0 0 542.04 570.24
  Z
  M 565.2695 561.6484
  A 0.84 0.84 0.0 0 0 564.4488 560.7896
  L 554.9112 560.5731
  A 0.84 0.84 0.0 0 0 554.0524 561.3939
  L 553.8505 570.2916
  A 0.84 0.84 0.0 0 0 554.6712 571.1504
  L 564.2088 571.3669
  A 0.84 0.84 0.0 0 0 565.0676 570.5461
  L 565.2695 561.6484
  Z
  M 579.17 571.27
  L 587.17 571.23
  A 1.60 1.60 0.0 0 0 588.76 569.62
  L 588.73 563.48
  A 3.00 2.13 89.7 0 0 586.58 560.49
  L 579.64 560.53
  A 3.00 2.13 89.7 0 0 577.53 563.54
  L 577.56 569.68
  A 1.60 1.60 0.0 0 0 579.17 571.27
  Z
  M 608.9108 561.9409
  A 1.30 1.30 0.0 0 0 607.6176 560.6341
  L 598.4378 560.5860
  A 1.30 1.30 0.0 0 0 597.1310 561.8792
  L 597.0892 569.8591
  A 1.30 1.30 0.0 0 0 598.3824 571.1659
  L 607.5622 571.2140
  A 1.30 1.30 0.0 0 0 608.8690 569.9208
  L 608.9108 561.9409
  Z
  M 631.6950 561.5021
  A 0.90 0.90 0.0 0 0 630.8045 560.5928
  L 620.7850 560.4878
  A 0.90 0.90 0.0 0 0 619.8757 561.3783
  L 619.7850 570.0379
  A 0.90 0.90 0.0 0 0 620.6755 570.9472
  L 630.6950 571.0522
  A 0.90 0.90 0.0 0 0 631.6043 570.1617
  L 631.6950 561.5021
  Z
  M 699.0101 561.7372
  A 1.14 1.14 0.0 0 0 697.8781 560.5892
  L 686.6784 560.5110
  A 1.14 1.14 0.0 0 0 685.5305 561.6431
  L 685.4699 570.3228
  A 1.14 1.14 0.0 0 0 686.6019 571.4708
  L 697.8016 571.5490
  A 1.14 1.14 0.0 0 0 698.9495 570.4169
  L 699.0101 561.7372
  Z
  M 709.46 570.80
  C 713.45 570.97 717.73 572.35 721.58 570.73
  A 0.72 0.71 -13.7 0 0 722.02 570.02
  L 721.41 561.33
  A 0.89 0.89 0.0 0 0 720.52 560.50
  L 710.06 560.50
  A 0.98 0.97 0.9 0 0 709.08 561.44
  L 708.77 570.06
  A 0.72 0.72 0.0 0 0 709.46 570.80
  Z
  M 747.1917 561.8444
  A 1.31 1.31 0.0 0 0 745.8886 560.5276
  L 735.3887 560.4726
  A 1.31 1.31 0.0 0 0 734.0719 561.7757
  L 734.0283 570.0956
  A 1.31 1.31 0.0 0 0 735.3314 571.4124
  L 745.8313 571.4674
  A 1.31 1.31 0.0 0 0 747.1481 570.1643
  L 747.1917 561.8444
  Z
  M 658.09 584.04
  L 672.47 583.98
  A 1.58 1.58 0.0 0 0 674.05 582.40
  L 674.01 573.22
  A 12.50 8.65 89.8 0 0 665.32 560.75
  L 665.08 560.75
  A 12.50 8.65 89.8 0 0 656.47 573.28
  L 656.51 582.46
  A 1.58 1.58 0.0 0 0 658.09 584.04
  Z
  M 377.1199 571.9878
  A 0.26 0.26 0.0 0 0 376.8595 571.7283
  L 363.4395 571.7517
  A 0.26 0.26 0.0 0 0 363.1800 572.0122
  L 363.2001 583.5322
  A 0.26 0.26 0.0 0 0 363.4605 583.7917
  L 376.8805 583.7683
  A 0.26 0.26 0.0 0 0 377.1400 583.5078
  L 377.1199 571.9878
  Z
  M 301.3974 577.3468
  A 0.61 0.61 0.0 0 0 300.7906 576.7336
  L 287.9708 576.6665
  A 0.61 0.61 0.0 0 0 287.3576 577.2733
  L 287.3026 587.7932
  A 0.61 0.61 0.0 0 0 287.9094 588.4064
  L 300.7292 588.4735
  A 0.61 0.61 0.0 0 0 301.3424 587.8667
  L 301.3974 577.3468
  Z"
/>
<path fill="var(--primary-color)" d="
  M 818.69 383.56
  C 803.98 367.19 799.85 337.76 819.98 323.76
  Q 824.02 320.94 832.68 318.04
  Q 859.10 309.19 885.59 300.45
  A 0.79 0.78 71.5 0 1 886.58 300.95
  L 892.38 318.31
  Q 892.57 318.86 892.01 319.05
  Q 867.18 327.36 842.39 335.51
  Q 832.79 338.67 829.79 341.31
  C 823.08 347.22 822.51 358.11 827.55 365.91
  Q 835.23 377.77 849.51 373.02
  Q 876.63 364.01 903.89 354.96
  A 0.56 0.56 0.0 0 1 904.60 355.32
  L 910.42 373.01
  Q 910.57 373.46 910.12 373.61
  Q 882.27 382.96 854.39 392.00
  C 840.95 396.35 828.42 394.40 818.69 383.56
  Z"
/>
<path fill="var(--primary-color)" d="
  M 76.45 400.29
  C 53.71 390.81 42.66 369.65 50.60 345.63
  C 56.45 327.91 72.00 316.20 90.71 318.16
  Q 91.52 318.24 91.29 319.02
  L 85.92 336.94
  A 0.78 0.77 7.6 0 1 85.19 337.49
  C 74.54 337.57 67.44 345.50 65.96 355.38
  C 64.33 366.19 70.15 374.59 79.48 379.77
  C 94.18 387.94 116.50 390.18 124.21 371.75
  C 128.85 360.66 126.02 348.05 113.61 343.97
  A 0.54 0.53 17.6 0 0 112.93 344.32
  L 107.49 362.29
  A 0.62 0.61 -73.2 0 1 106.73 362.70
  L 93.72 358.74
  Q 93.15 358.57 93.32 357.99
  L 104.12 322.19
  Q 104.36 321.41 105.14 321.62
  Q 111.68 323.35 118.48 325.73
  C 139.70 333.17 148.14 353.70 141.78 374.61
  C 132.51 405.09 103.36 411.52 76.45 400.29
  Z"
/>
<ellipse fill="var(--primary-color)" cx="0.00" cy="0.00" transform="translate(589.49,342.28) rotate(85.1)" rx="11.68" ry="10.82"/>
<circle fill="var(--primary-color)" cx="369.37" cy="338.97" r="5.36"/>
<path fill="var(--primary-color)" d="
  M 716.63 401.70
  C 719.75 402.92 721.81 407.48 722.99 410.31
  A 0.86 0.85 58.6 0 0 724.33 410.64
  L 767.31 373.82
  Q 768.69 372.64 769.22 374.38
  L 773.12 387.40
  A 0.59 0.59 0.0 0 1 772.57 388.16
  Q 768.53 388.29 765.20 390.95
  Q 748.97 403.92 731.99 415.88
  C 729.40 417.71 726.71 418.70 723.77 419.68
  A 1.61 1.59 7.8 0 0 722.97 420.28
  Q 719.45 425.33 712.76 424.98
  C 705.70 424.61 702.27 420.22 700.34 413.84
  C 697.59 404.72 704.61 401.75 711.64 399.59
  Q 712.18 399.42 712.25 398.87
  L 713.46 389.93
  Q 713.53 389.44 713.95 389.18
  C 716.49 387.64 718.90 386.10 721.18 384.29
  Q 741.42 368.20 760.40 350.91
  A 0.83 0.83 0.0 0 1 761.74 351.25
  L 766.09 363.49
  A 0.77 0.77 0.0 0 1 765.32 364.52
  C 759.98 364.25 759.41 366.67 755.93 369.42
  Q 736.03 385.11 716.57 401.32
  A 0.22 0.22 0.0 0 0 716.63 401.70
  Z"
/>
<path fill="var(--primary-color)" d="
  M 859.45 438.96
  Q 859.41 438.27 858.71 438.31
  L 827.00 440.30
  Q 826.47 440.33 826.43 439.80
  L 825.20 421.03
  A 0.29 0.28 87.1 0 1 825.47 420.72
  L 917.50 414.83
  A 0.64 0.63 86.4 0 1 918.17 415.43
  Q 919.33 434.13 920.50 453.00
  C 921.70 472.34 909.70 486.85 889.46 486.72
  Q 873.06 486.62 864.90 472.42
  Q 864.64 471.98 864.22 472.25
  L 830.74 493.46
  A 0.59 0.59 0.0 0 1 829.84 493.00
  L 828.58 472.78
  Q 828.55 472.28 828.97 472.02
  L 859.81 452.91
  Q 860.26 452.63 860.23 452.10
  L 859.45 438.96
  Z
  M 902.56 435.46
  L 875.93 437.09
  A 0.80 0.80 0.0 0 0 875.18 437.94
  L 876.10 452.88
  A 14.49 13.09 86.5 0 0 890.05 466.55
  L 892.14 466.42
  A 14.49 13.09 86.5 0 0 904.32 451.16
  L 903.41 436.21
  A 0.80 0.80 0.0 0 0 902.56 435.46
  Z"
/>
<path fill="var(--primary-color)" d="
  M 89.46 444.66
  Q 89.69 445.23 90.23 444.95
  L 125.88 426.88
  Q 126.52 426.55 126.50 427.28
  L 125.79 447.66
  A 1.20 1.19 -12.4 0 1 125.12 448.70
  L 93.09 464.39
  Q 92.24 464.81 92.21 465.76
  L 91.88 478.83
  Q 91.87 479.28 92.32 479.29
  L 124.04 480.20
  A 0.81 0.81 0.0 0 1 124.82 481.04
  L 124.25 499.23
  Q 124.22 499.92 123.53 499.90
  L 31.76 497.04
  Q 31.12 497.02 31.14 496.38
  Q 31.66 480.16 32.25 464.01
  Q 32.60 454.31 34.15 449.07
  Q 39.76 430.16 59.06 428.05
  C 71.69 426.66 84.52 432.24 89.46 444.66
  Z
  M 48.74 478.00
  L 75.12 478.92
  A 0.96 0.96 0.0 0 0 76.12 478.00
  L 76.64 463.04
  A 14.38 13.14 -88.0 0 0 64.01 448.21
  L 61.97 448.14
  A 14.38 13.14 -88.0 0 0 48.34 462.06
  L 47.81 477.01
  A 0.96 0.96 0.0 0 0 48.74 478.00
  Z"
/>
<path fill="var(--primary-color)" d="
  M 843.56 592.46
  C 820.41 583.58 813.99 558.92 822.67 537.68
  C 830.70 518.03 849.47 509.80 870.35 512.66
  C 899.07 516.59 920.63 536.44 912.98 567.75
  C 908.37 586.62 893.38 599.89 873.28 598.28
  A 0.66 0.65 8.2 0 1 872.69 597.50
  L 876.32 579.32
  A 0.72 0.71 6.6 0 1 877.05 578.75
  C 895.13 579.44 902.69 556.63 892.14 543.77
  C 882.85 532.44 858.02 528.05 845.94 536.16
  C 835.62 543.09 832.94 559.23 841.55 568.92
  Q 842.72 570.24 847.78 573.08
  Q 848.25 573.35 848.14 573.88
  L 844.44 591.99
  Q 844.28 592.74 843.56 592.46
  Z"
/>
<path fill="var(--primary-color)" d="
  M 60.00 575.40
  L 80.76 571.09
  A 0.50 0.50 0.0 0 0 81.15 570.50
  L 73.23 532.47
  A 0.50 0.50 0.0 0 1 73.62 531.88
  L 88.57 528.82
  A 0.50 0.50 0.0 0 1 89.16 529.21
  L 97.01 567.23
  A 0.50 0.50 0.0 0 0 97.60 567.62
  L 118.42 563.27
  A 0.50 0.50 0.0 0 0 118.81 562.68
  L 110.20 521.35
  A 0.50 0.50 0.0 0 1 110.59 520.76
  L 125.51 517.65
  A 0.50 0.50 0.0 0 1 126.10 518.04
  L 138.68 578.67
  A 0.50 0.50 0.0 0 1 138.29 579.26
  L 48.11 597.94
  A 0.50 0.50 0.0 0 1 47.52 597.55
  L 34.99 537.10
  A 0.50 0.50 0.0 0 1 35.38 536.51
  L 50.30 533.43
  A 0.50 0.50 0.0 0 1 50.89 533.82
  L 59.41 575.01
  A 0.50 0.50 0.0 0 0 60.00 575.40
  Z"
/>
<path fill="var(--primary-color)" d="
  M 867.07 652.50
  L 847.90 643.20
  A 0.46 0.46 0.0 0 0 847.29 643.42
  L 830.37 678.48
  A 0.46 0.46 0.0 0 1 829.76 678.70
  L 815.97 672.02
  A 0.46 0.46 0.0 0 1 815.76 671.41
  L 832.68 636.40
  A 0.46 0.46 0.0 0 0 832.47 635.79
  L 813.26 626.51
  A 0.46 0.46 0.0 0 0 812.65 626.72
  L 794.24 664.87
  A 0.46 0.46 0.0 0 1 793.62 665.09
  L 779.87 658.35
  A 0.46 0.46 0.0 0 1 779.66 657.74
  L 806.59 601.95
  A 0.46 0.46 0.0 0 1 807.20 601.74
  L 890.23 641.78
  A 0.46 0.46 0.0 0 1 890.44 642.39
  L 863.56 698.08
  A 0.46 0.46 0.0 0 1 862.95 698.30
  L 849.15 691.61
  A 0.46 0.46 0.0 0 1 848.94 691.00
  L 867.28 653.11
  A 0.46 0.46 0.0 0 0 867.07 652.50
  Z"
/>
<path fill="var(--primary-color)" d="
  M 107.69 632.28
  C 100.20 609.40 126.23 593.90 144.47 606.73
  C 149.88 610.54 153.64 616.65 156.88 623.37
  Q 165.16 640.50 173.10 657.61
  A 0.83 0.83 0.0 0 1 172.70 658.71
  L 90.03 697.78
  Q 89.35 698.10 89.02 697.42
  Q 80.75 680.07 72.79 663.39
  C 67.64 652.62 66.61 637.60 76.45 629.60
  C 86.19 621.67 98.65 622.44 106.80 632.76
  A 0.51 0.51 0.0 0 0 107.69 632.28
  Z
  M 129.03 657.70
  L 149.73 648.05
  A 1.04 1.04 0.0 0 0 150.23 646.66
  L 143.19 631.56
  A 14.27 11.96 65.0 0 0 126.32 623.68
  L 125.41 624.10
  A 14.27 11.96 65.0 0 0 120.60 642.09
  L 127.65 657.20
  A 1.04 1.04 0.0 0 0 129.03 657.70
  Z
  M 96.20 673.36
  L 115.51 664.23
  A 0.95 0.95 0.0 0 0 115.96 662.97
  L 109.87 650.09
  A 13.69 11.00 64.7 0 0 94.08 642.42
  L 92.94 642.95
  A 13.69 11.00 64.7 0 0 88.85 660.03
  L 94.93 672.91
  A 0.95 0.95 0.0 0 0 96.20 673.36
  Z"
/>
<path fill="var(--primary-color)" d="
  M 287.44 660.06
  C 273.71 659.90 264.53 659.46 253.46 664.34
  Q 252.93 664.57 252.58 664.11
  L 243.67 652.04
  Q 243.34 651.59 243.82 651.32
  Q 251.43 646.90 258.67 642.16
  C 264.99 638.01 272.18 637.53 280.75 637.55
  C 409.08 637.80 537.44 637.15 665.76 637.61
  C 685.31 637.68 699.70 643.87 716.09 653.86
  Q 716.50 654.11 716.21 654.49
  Q 707.82 665.16 698.22 674.72
  A 0.82 0.81 -41.1 0 1 697.00 674.64
  C 691.29 667.20 682.08 660.36 672.39 660.16
  Q 666.00 660.03 660.00 659.71
  A 4.14 4.14 0.0 0 0 656.81 660.96
  C 649.40 668.60 640.94 668.00 631.42 665.08
  C 618.24 661.04 606.66 659.27 590.18 659.05
  Q 590.09 659.05 579.33 658.74
  Q 558.70 658.14 538.88 663.94
  Q 536.95 664.51 534.55 666.18
  C 528.26 670.56 522.16 669.14 513.75 667.77
  C 504.82 666.31 489.17 661.29 475.19 660.45
  Q 470.64 660.17 463.82 660.34
  C 422.45 661.31 380.88 660.46 339.50 660.21
  Q 328.84 660.15 319.47 667.96
  C 315.14 671.57 302.11 668.72 296.76 666.92
  Q 291.08 665.01 288.23 660.50
  Q 287.96 660.06 287.44 660.06
  Z"
/>
<path fill="var(--primary-color)" d="
  M 267.82 683.69
  Q 264.37 680.51 261.41 677.17
  A 0.44 0.44 0.0 0 1 261.61 676.46
  Q 270.18 673.72 278.78 674.71
  C 284.34 675.35 287.99 680.24 292.99 682.36
  Q 305.49 687.66 318.09 683.87
  C 327.28 681.11 334.65 674.89 346.19 674.81
  C 388.60 674.50 431.06 674.71 473.47 674.74
  C 476.19 674.75 480.15 675.29 482.80 676.13
  C 494.82 679.91 511.65 685.33 525.01 684.32
  C 536.70 683.43 547.21 676.15 559.18 674.54
  C 570.51 673.02 583.06 673.63 594.50 673.81
  Q 605.97 673.99 612.75 676.01
  C 626.42 680.08 644.58 686.66 657.24 677.94
  C 669.87 669.24 677.61 678.00 687.74 684.30
  Q 688.52 684.78 687.84 685.40
  Q 673.42 698.40 658.87 709.63
  Q 655.31 712.38 651.43 714.71
  A 0.97 0.94 41.3 0 1 650.53 714.75
  C 641.29 710.38 631.93 706.32 622.69 701.93
  C 608.13 695.02 596.96 691.24 582.25 690.77
  C 571.23 690.43 560.55 694.53 550.39 698.76
  C 541.49 702.47 532.95 708.40 524.42 713.62
  A 1.19 1.18 -42.6 0 1 523.10 713.57
  C 499.09 695.75 463.79 689.06 436.13 701.35
  C 425.89 705.90 421.52 706.15 410.76 701.15
  C 401.98 697.07 393.64 692.82 383.54 691.17
  C 355.02 686.52 330.24 700.83 306.77 714.58
  Q 306.33 714.84 305.88 714.59
  Q 301.94 712.39 298.39 709.62
  Q 282.57 697.28 267.82 683.69
  Z"
/>
<path fill="var(--primary-color)" d="
  M 521.48 758.02
  C 504.69 742.11 488.26 731.12 464.25 731.10
  Q 450.75 731.09 443.20 741.11
  C 432.80 754.91 400.30 736.52 389.87 729.64
  C 383.05 725.14 376.86 726.39 369.61 725.48
  Q 368.73 725.37 369.09 726.18
  C 373.27 735.60 382.08 741.82 390.27 747.55
  Q 396.46 751.88 402.46 754.21
  C 419.89 760.97 440.81 768.05 455.02 750.95
  C 458.20 747.13 460.95 746.10 465.76 746.53
  Q 472.52 747.15 477.52 748.15
  C 489.60 750.59 498.99 758.38 506.92 767.28
  A 0.42 0.42 0.0 0 1 506.63 767.98
  C 494.85 768.55 483.62 769.18 471.47 768.67
  C 461.60 768.25 450.72 768.24 441.86 767.45
  C 403.29 764.03 367.23 750.66 333.19 732.55
  Q 326.98 729.25 320.37 724.64
  Q 319.94 724.34 320.39 724.07
  C 338.13 713.75 360.41 703.08 381.11 706.77
  C 388.52 708.08 398.54 712.56 404.76 715.45
  Q 418.58 721.86 432.59 719.06
  C 437.98 717.99 444.64 715.08 450.50 713.00
  C 468.14 706.74 489.13 711.46 505.54 719.93
  C 522.58 728.72 534.05 744.64 553.47 749.33
  C 558.60 750.57 561.84 748.99 565.28 744.95
  C 570.07 739.34 573.58 732.91 577.65 726.85
  Q 578.16 726.09 577.25 726.05
  C 573.76 725.91 567.72 725.46 564.38 726.81
  A 1.49 1.44 3.4 0 0 563.66 727.43
  C 562.19 729.95 558.40 734.73 555.34 734.08
  Q 544.99 731.88 537.86 724.35
  A 0.93 0.93 0.0 0 1 538.05 722.92
  Q 548.77 716.47 560.09 711.37
  C 575.38 704.47 591.36 705.09 606.80 711.72
  C 617.55 716.34 626.96 721.24 637.13 723.78
  A 0.44 0.43 32.4 0 1 637.30 724.54
  C 636.32 725.33 634.98 725.44 634.02 725.99
  C 602.17 743.96 567.38 757.94 531.00 763.75
  Q 529.05 764.06 527.53 764.00
  Q 527.01 763.98 526.67 763.58
  Q 524.22 760.62 521.48 758.02
  Z"
/>
</svg>
